<?xml version="1.0" encoding="UTF-8"?>
<svg width="26px" height="26px" viewBox="0 0 26 26" version="1.1" xmlns="http://www.w3.org/2000/svg" xmlns:xlink="http://www.w3.org/1999/xlink">
    <title>形状结合</title>
    <g id="页面-1" stroke="none" stroke-width="1" fill="none" fill-rule="evenodd">
        <g id="NOMOS——夜晚备份-2" transform="translate(-1065.000000, -47.000000)" fill="#FFD84E" fill-rule="nonzero">
            <g id="夜晚" transform="translate(1062.000000, 44.000000)">
                <path d="M16.0592,3.72 C23.0496,3.72 28.6976,9.4688 28.5312,16.5008 C28.376,23.12 22.9776,28.5184 16.3584,28.6736 C9.3312,28.8384 3.5808,23.1904 3.5808,16.2 C3.5808,16.144 3.5824,16.0896 3.5824,16.0336 C3.5888,15.5584 4.2096,15.3744 4.4688,15.7712 C5.9632,18.0608 8.5808,19.5488 11.5408,19.4496 C15.7616,19.3072 19.208,15.8784 19.368,11.6592 C19.48,8.72 18.0272,6.1136 15.776,4.6032 C15.384,4.3392 15.5696,3.72 16.0416,3.72 L16.0416,3.72 Z M10.4256,12.752 C11.4532915,12.752 12.2864,13.5851085 12.2864,14.6128 C12.2864,15.6404915 11.4532915,16.4736 10.4256,16.4736 C9.39790854,16.4736 8.5648,15.6404915 8.5648,14.6128 C8.5648,13.5851085 9.39790854,12.752 10.4256,12.752 Z" id="形状结合"></path>
            </g>
        </g>
    </g>
</svg>