<?xml version="1.0" encoding="UTF-8"?>
<svg width="36px" height="36px" viewBox="0 0 36 36" version="1.1" xmlns="http://www.w3.org/2000/svg" xmlns:xlink="http://www.w3.org/1999/xlink">
    <title>白天多云</title>
    <g id="页面-1" stroke="none" stroke-width="1" fill="none" fill-rule="evenodd">
        <g id="NOMOS——昼日备份-6" transform="translate(-1060.000000, -42.000000)" fill-rule="nonzero">
            <g id="白天多云" transform="translate(1060.000000, 42.000000)">
                <rect id="矩形" fill="#000000" opacity="0" x="0" y="0" width="36" height="36"></rect>
                <path d="M25.6042969,20.390625 C26.0314546,20.390625 26.3777344,20.7369048 26.3777344,21.1640625 C26.3777344,21.5912202 26.0314546,21.9375 25.6042969,21.9375 C25.1771391,21.9375 24.8308594,21.5912202 24.8308594,21.1640625 C24.8308594,20.7369048 25.1771391,20.390625 25.6042969,20.390625 Z M21.9199219,19.4027344 C22.3470796,19.4027344 22.6933594,19.7490141 22.6933594,20.1761719 C22.6933594,20.6033296 22.3470796,20.9496094 21.9199219,20.9496094 C21.4927641,20.9496094 21.1464844,20.6033296 21.1464844,20.1761719 C21.1464844,19.7490141 21.4927641,19.4027344 21.9199219,19.4027344 Z M29.2921875,19.4027344 C29.7193452,19.4027344 30.065625,19.7490141 30.065625,20.1761719 C30.065625,20.6033296 29.7193452,20.9496094 29.2921875,20.9496094 C28.8650298,20.9496094 28.51875,20.6033296 28.51875,20.1761719 C28.51875,19.7490141 28.8650298,19.4027344 29.2921875,19.4027344 Z M25.6042969,8.37421875 C28.5963427,8.37421875 31.021875,10.7997511 31.021875,13.7917969 C31.021875,15.7273111 29.9892905,17.5158001 28.313086,18.4835573 C26.6368814,19.4513144 24.5717123,19.4513144 22.8955078,18.4835573 C21.2193033,17.5158001 20.1867187,15.7273111 20.1867187,13.7917969 C20.1867187,10.7997511 22.6122511,8.37421875 25.6042969,8.37421875 Z M19.2199219,16.7027344 C19.6470796,16.7027344 19.9933594,17.0490141 19.9933594,17.4761719 C19.9933594,17.9033296 19.6470796,18.2496094 19.2199219,18.2496094 C18.7927641,18.2496094 18.4464844,17.9033296 18.4464844,17.4761719 C18.4464844,17.0490141 18.7927641,16.7027344 19.2199219,16.7027344 Z M31.9921875,16.7027344 C32.4193452,16.7027344 32.765625,17.0490141 32.765625,17.4761719 C32.765625,17.9033296 32.4193452,18.2496094 31.9921875,18.2496094 C31.5650298,18.2496094 31.21875,17.9033296 31.21875,17.4761719 C31.21875,17.0490141 31.5650298,16.7027344 31.9921875,16.7027344 Z M32.9800781,13.0183594 C33.4072359,13.0183594 33.7535156,13.3646391 33.7535156,13.7917969 C33.7535156,14.2189546 33.4072359,14.5652344 32.9800781,14.5652344 C32.5529204,14.5652344 32.2066406,14.2189546 32.2066406,13.7917969 C32.2066406,13.3646391 32.5529204,13.0183594 32.9800781,13.0183594 Z M18.2320313,13.0183594 C18.659189,13.0183594 19.0054688,13.3646391 19.0054688,13.7917969 C19.0054688,14.2189546 18.659189,14.5652344 18.2320313,14.5652344 C17.8048735,14.5652344 17.4585938,14.2189546 17.4585938,13.7917969 C17.4585938,13.3646391 17.8048735,13.0183594 18.2320313,13.0183594 Z M31.9921875,9.33046875 C32.4193452,9.33046875 32.765625,9.67674851 32.765625,10.1039062 C32.765625,10.531064 32.4193452,10.8773437 31.9921875,10.8773437 C31.5650298,10.8773437 31.21875,10.531064 31.21875,10.1039062 C31.21875,9.67674851 31.5650298,9.33046875 31.9921875,9.33046875 Z M19.2199219,9.33046875 C19.6470796,9.33046875 19.9933594,9.67674851 19.9933594,10.1039062 C19.9933594,10.531064 19.6470796,10.8773437 19.2199219,10.8773437 C18.7927641,10.8773437 18.4464844,10.531064 18.4464844,10.1039062 C18.4464844,9.67674851 18.7927641,9.33046875 19.2199219,9.33046875 Z M29.2921875,6.63046875 C29.7193452,6.63046875 30.065625,6.97674851 30.065625,7.40390625 C30.065625,7.83106399 29.7193452,8.17734375 29.2921875,8.17734375 C28.8650298,8.17734375 28.51875,7.83106399 28.51875,7.40390625 C28.51875,6.97674851 28.8650298,6.63046875 29.2921875,6.63046875 Z M21.9199219,6.63046875 C22.3470796,6.63046875 22.6933594,6.97674851 22.6933594,7.40390625 C22.6933594,7.83106399 22.3470796,8.17734375 21.9199219,8.17734375 C21.4927641,8.17734375 21.1464844,7.83106399 21.1464844,7.40390625 C21.1464844,6.97674851 21.4927641,6.63046875 21.9199219,6.63046875 Z M25.6042969,5.64257812 C26.0314546,5.64257812 26.3777344,5.98885789 26.3777344,6.41601562 C26.3777344,6.84317336 26.0314546,7.18945312 25.6042969,7.18945312 C25.1771391,7.18945312 24.8308594,6.84317336 24.8308594,6.41601562 C24.8308594,5.98885789 25.1771391,5.64257812 25.6042969,5.64257812 Z" id="形状结合" fill="#FEDB32"></path>
                <path d="M26.3566406,30.5085938 C30.0410156,30.5085938 33.0292969,27.5203125 33.0292969,23.8359375 C33.0292969,20.1515625 30.0410156,17.1632813 26.3566406,17.1632813 C26.1773437,17.1632813 26.0015625,17.1773437 25.8257812,17.1914062 C24.5214844,14.1117187 21.4699219,11.9496094 17.915625,11.9496094 C14.34375,11.9496094 11.2851562,14.1292969 9.98789063,17.2335938 C9.67851563,17.1878906 9.35859375,17.1667969 9.03867188,17.1667969 C5.35429688,17.1667969 2.36601563,20.1550781 2.36601563,23.8394531 C2.36601563,27.5238281 5.5125,30.5085938 9.03867188,30.5085938 L26.3566406,30.5085938 Z" id="路径" fill="#FFFFFF"></path>
            </g>
        </g>
    </g>
</svg>