<?xml version="1.0" encoding="utf-8"?>
<!-- Generator: Adobe Illustrator 21.0.0, SVG Export Plug-In . SVG Version: 6.00 Build 0)  -->
<svg version="1.1" id="图层_1" xmlns="http://www.w3.org/2000/svg" xmlns:xlink="http://www.w3.org/1999/xlink" x="0px" y="0px"
	 viewBox="0 0 200 200" style="enable-background:new 0 0 200 200;" xml:space="preserve">
<style type="text/css">
	.st0{fill:#999999;}
</style>
<path class="st0" d="M90.6,153.2c0,5.2,4.2,9.4,9.4,9.4c5.2,0,9.4-4.2,9.4-9.4c0-5.2-4.2-9.4-9.4-9.4S90.6,148,90.6,153.2z"/>
<path class="st0" d="M100,187.5c-48.2,0-87.5-39.3-87.5-87.5S51.8,12.5,100,12.5s87.5,39.3,87.5,87.5S148.2,187.5,100,187.5z
	 M100,25.1c-41.3,0-74.9,33.6-74.9,74.9c0,41.3,33.6,74.9,74.9,74.9c41.3,0,74.9-33.6,74.9-74.9C174.9,58.7,141.3,25.1,100,25.1z"/>
<path class="st0" d="M100,131.6c-3.5,0-6.3-2.8-6.3-6.2v-10.6c0-10.2,7.8-18,14.7-24.9c5.1-5.1,10.3-10.3,10.3-14.5
	c0-10.4-8.4-18.9-18.7-18.9c-10.5,0-18.7,8.1-18.7,18.5c0,3.5-2.8,6.2-6.3,6.2s-6.3-2.8-6.3-6.2c0-17.1,14-31,31.3-31
	s31.3,14.1,31.3,31.4c0,9.4-7.1,16.4-14,23.3c-5.4,5.4-11,11-11,16.1v10.6C106.3,128.8,103.5,131.6,100,131.6z"/>
</svg>
