<?xml version="1.0" encoding="utf-8"?>
<!-- Generator: Adobe Illustrator 21.0.0, SVG Export Plug-In . SVG Version: 6.00 Build 0)  -->
<svg version="1.1" id="图层_1" xmlns="http://www.w3.org/2000/svg" xmlns:xlink="http://www.w3.org/1999/xlink" x="0px" y="0px"
	 viewBox="0 0 200 200" style="enable-background:new 0 0 200 200;" xml:space="preserve">
<style type="text/css">
	.st0{fill:#FF8C04;}
</style>
<path class="st0" d="M113.4,139.4c-2-2.5-1.6-6.2,0.9-8.2l15.9-15.8c2.3-2.3,6-2.3,8.3,0c2.3,2.3,2.3,6,0,8.3l-6.3,6.3h49.3
	c3.2,0,5.8,2.6,5.8,5.8c0,3.2-2.6,5.8-5.8,5.8H118C116.2,141.6,114.5,140.8,113.4,139.4z"/>
<path class="st0" d="M165,105.9c-3.2,0-5.9-2.6-5.9-5.9l0,0V28.3c0-2.2-1.7-3.9-3.9-3.9h-127c-2.2,0-3.9,1.7-3.9,3.9v143.4
	c0,2.2,1.7,3.9,3.9,3.9h77.4v0c0,0,0.1,0,0.1,0c3.2,0,5.9,2.6,5.9,5.9s-2.6,5.9-5.9,5.9c0,0-0.1,0-0.1,0v0H22.5
	c-5.4,0-9.8-4.4-9.8-9.8l0,0V22.5c0-5.4,4.4-9.8,9.8-9.8h138.7c5.4,0,9.8,4.4,9.8,9.8V100C170.9,103.2,168.3,105.9,165,105.9
	L165,105.9z"/>
<path class="st0" d="M118,153.1h63.5c3.2,0,5.9,2.6,5.9,5.9s-2.6,5.9-5.9,5.9h-49.3l6.3,6.3c2.3,2.3,2.3,6,0,8.3
	c-2.3,2.3-6,2.3-8.3,0l0,0l-15.9-15.9c-2.5-2-2.9-5.7-0.9-8.2C114.5,153.9,116.2,153.1,118,153.1z"/>
<path class="st0" d="M86.9,124.2v5.4H76.1v-5.4c-11.9,0-21.7-9.8-21.7-21.7h10.8c0,5.9,4.8,10.8,10.8,10.8V91.7
	c-11.8,0-21.6-9.8-21.6-21.7s9.8-21.7,21.7-21.7V43h10.8v5.4c11.9,0,21.7,9.8,21.7,21.7H97.8c0-5.9-4.8-10.8-10.8-10.8v21.7h2.1
	c3.8,0,8.6,2.1,12.5,5.4c4.4,3.8,7.5,9.8,7.5,16.3C108.6,114.4,98.8,124.2,86.9,124.2z M86.9,113.4c5.9,0,10.8-4.8,10.8-10.8
	c0-5.9-4.8-10.8-10.8-10.8V113.4L86.9,113.4z M76.1,59.3c-5.9,0-10.8,4.8-10.8,10.8s4.8,10.8,10.8,10.8V59.3z"/>
</svg>
