<?xml version="1.0" encoding="utf-8"?>
<!-- Generator: Adobe Illustrator 21.0.0, SVG Export Plug-In . SVG Version: 6.00 Build 0)  -->
<svg version="1.1" id="图层_1" xmlns="http://www.w3.org/2000/svg" xmlns:xlink="http://www.w3.org/1999/xlink" x="0px" y="0px"
	 viewBox="0 0 200 200" style="enable-background:new 0 0 200 200;" xml:space="preserve">
<style type="text/css">
	.st0{fill:#FF8C04;}
</style>
<path class="st0" d="M181.5,141.6h-63.5c-3.2,0-5.8-2.6-5.8-5.8c0-3.2,2.6-5.8,5.8-5.8h49.3l-6.3-6.3c-2.3-2.3-2.3-6,0-8.3
	c2.3-2.3,6-2.3,8.3,0l15.9,15.8c2.5,2,2.9,5.7,0.9,8.2C184.9,140.8,183.2,141.6,181.5,141.6z M48,122.5h43.2c3.2,0,5.9,2.6,5.9,5.8
	c0,3.2-2.6,5.9-5.8,5.9c0,0,0,0-0.1,0H48c-3.2,0-5.9-2.6-5.9-5.8C42.1,125.1,44.7,122.5,48,122.5C48,122.5,48,122.5,48,122.5z
	 M42.2,71.7c0-3.2,2.6-5.9,5.9-5.9c0,0,0,0,0,0h87.5c3.2,0,5.9,2.6,5.9,5.8c0,3.2-2.6,5.9-5.8,5.9c0,0,0,0-0.1,0H48
	C44.8,77.5,42.2,74.9,42.2,71.7z M113.5,106H48c-3.2,0-5.9-2.6-5.9-5.8c0-3.2,2.6-5.9,5.8-5.9c0,0,0,0,0.1,0h65.5
	c3.2,0,5.8,2.7,5.8,5.9C119.3,103.3,116.7,105.9,113.5,106L113.5,106z M165,105.9c-3.2,0-5.9-2.6-5.9-5.9l0,0V28.3
	c0-2.2-1.7-3.9-3.9-3.9h-127c-2.2,0-3.9,1.7-3.9,3.9v143.4c0,2.2,1.7,3.9,3.9,3.9h77.4v0c0,0,0.1,0,0.1,0c3.2,0,5.9,2.6,5.9,5.9
	s-2.6,5.9-5.9,5.9c0,0-0.1,0-0.1,0v0H22.5c-5.4,0-9.8-4.4-9.8-9.8l0,0V22.5c0-5.4,4.4-9.8,9.8-9.8h138.7c5.4,0,9.8,4.4,9.8,9.8V100
	C170.9,103.2,168.3,105.9,165,105.9L165,105.9z M118,153.1h63.5c3.2,0,5.9,2.6,5.9,5.9s-2.6,5.9-5.9,5.9h-49.3l6.3,6.3
	c2.3,2.3,2.3,6,0,8.3c-2.3,2.3-6,2.3-8.3,0l0,0l-15.9-15.9c-2.5-2-2.9-5.7-0.9-8.2C114.5,153.9,116.2,153.1,118,153.1z"/>
</svg>
