<?xml version="1.0" encoding="utf-8"?>
<!-- Generator: Adobe Illustrator 21.0.0, SVG Export Plug-In . SVG Version: 6.00 Build 0)  -->
<svg version="1.1" id="图层_1" xmlns="http://www.w3.org/2000/svg" xmlns:xlink="http://www.w3.org/1999/xlink" x="0px" y="0px"
	 viewBox="0 0 200 200" style="enable-background:new 0 0 200 200;" xml:space="preserve">
<style type="text/css">
	.st0{fill:#472710;}
</style>
<path class="st0" d="M37.5,137.5c2.5,0,6.3,1.3,7.5,2.5l55,46.3V17.5L46.3,71.3c-2.5,2.5-5,3.8-8.8,3.8H25c-7.5,0-12.5,5-12.5,12.5
	V125c0,7.5,5,12.5,12.5,12.5H37.5z M25,150c-13.8,0-25-11.3-25-25V87.5c0-13.8,11.3-25,25-25h12.5L91.3,8.8c5-5,12.5-5,17.5,0
	c2.5,2.5,3.8,5,3.8,8.8v168.8c0,7.5-5,12.5-12.5,12.5c-2.5,0-6.3-1.3-7.5-2.5l-55-46.3H25z M141.3,148.8c-3.8,1.3-7.5,1.3-8.8-2.5
	c-1.3-2.5-1.3-6.3,2.5-8.8c13.8-7.5,21.3-22.5,21.3-37.5c0-16.3-8.8-30-22.5-37.5c-2.5-1.3-3.8-5-2.5-8.7c2.5-3.8,6.3-3.8,8.8-2.5
	c17.5,10,28.8,28.8,28.8,48.7S157.5,138.8,141.3,148.8z M166.3,166.2c-2.5,2.5-6.3,1.3-8.8-1.3s-1.3-6.3,1.3-8.8
	c17.5-12.5,28.8-33.7,28.8-55c0-22.5-11.3-42.5-28.8-56.3c-2.5-2.5-3.8-6.3-1.3-8.8s6.3-3.8,8.8-1.3c21.3,15,33.8,38.8,33.8,65
	S187.5,150,166.3,166.2L166.3,166.2z"/>
</svg>
