<?xml version="1.0" encoding="UTF-8"?>
<svg width="18px" height="18px" viewBox="0 0 18 18" version="1.1" xmlns="http://www.w3.org/2000/svg" xmlns:xlink="http://www.w3.org/1999/xlink">
    <title>形状</title>
    <g id="页面-1" stroke="none" stroke-width="1" fill="none" fill-rule="evenodd">
        <g id="NOMOS——夜晚备份-2" transform="translate(-51.000000, -616.000000)" fill-rule="nonzero">
            <g id="编组-4" transform="translate(0.000000, -0.052559)">
                <g id="编组-2备份-8" transform="translate(32.339746, 593.000000)">
                    <g id="编组-3" transform="translate(15.660254, 20.052559)">
                        <g id="通知" transform="translate(3.000000, 3.000000)">
                            <rect id="矩形" fill="#000000" opacity="0" x="0" y="0" width="18" height="18"></rect>
                            <path d="M16.7727273,13.5 L16.3636364,13.5 L16.3636364,7.36363637 C16.3636364,3.31363637 13.05,0 9,0 C4.95,0 1.63636363,3.31363637 1.63636363,7.36363637 L1.63636363,13.5 L1.22727273,13.5 C0.77727273,13.5 0.409090904,13.8681818 0.409090904,14.3181818 C0.409090904,14.7681818 0.77727273,15.1363637 1.22727273,15.1363636 L5.4,15.1363636 C5.76818183,16.7727273 7.2409091,18 9,18 C10.7590909,18 12.2318182,16.7727273 12.6,15.1363636 L16.7727273,15.1363636 C17.2227273,15.1363636 17.5909091,14.7681818 17.5909091,14.3181818 C17.5909091,13.8681818 17.2227273,13.5 16.7727273,13.5 Z M9,16.3636364 C8.18181817,16.3636364 7.44545454,15.8727273 7.11818183,15.1363636 L10.8818182,15.1363636 C10.5545454,15.8727273 9.81818181,16.3636364 9,16.3636364 L9,16.3636364 Z M3.27272727,13.5 L3.27272727,7.36363637 C3.27272727,4.21363637 5.85,1.63636363 9,1.63636363 C12.15,1.63636363 14.7272727,4.21363637 14.7272727,7.36363637 L14.7272727,13.5 L3.27272727,13.5 Z" id="形状" fill="#FFFFFF"></path>
                        </g>
                    </g>
                </g>
            </g>
        </g>
    </g>
</svg>