<?xml version="1.0" encoding="UTF-8"?>
<svg width="18px" height="22px" viewBox="0 0 18 22" version="1.1" xmlns="http://www.w3.org/2000/svg" xmlns:xlink="http://www.w3.org/1999/xlink">
    <title>形状</title>
    <g id="页面-1" stroke="none" stroke-width="1" fill="none" fill-rule="evenodd">
        <g id="NOMOS——夜晚备份-2" transform="translate(-51.000000, -213.000000)" fill-rule="nonzero">
            <g id="编组-4" transform="translate(0.000000, -0.052559)">
                <g id="编组-2备份" transform="translate(32.000000, 192.052559)">
                    <g id="property-safety" transform="translate(16.000000, 20.000000)">
                        <rect id="矩形" fill="#000000" opacity="0" x="0" y="0" width="24" height="24"></rect>
                        <path d="M20.3179688,3.98203125 L12.3539063,1.26796875 C12.2578125,1.23515625 12.1289063,1.21875 12,1.21875 C11.8710938,1.21875 11.7421875,1.23515625 11.6460938,1.26796875 L3.68203125,3.98203125 C3.4875,4.04765625 3.328125,4.27265625 3.328125,4.47890625 L3.328125,15.7851562 C3.328125,15.9914063 3.46171875,16.2632812 3.6234375,16.3921875 L11.7023438,22.6875 C11.784375,22.7507813 11.8898438,22.7835938 11.9976563,22.7835938 C12.1054688,22.7835938 12.2132813,22.7507813 12.2929688,22.6875 L20.371875,16.3921875 C20.5335938,16.265625 20.6672883,15.99375 20.6672883,15.7851562 L20.6672883,4.47890625 C20.671875,4.27265625 20.5125,4.05 20.3179688,3.98203125 Z M18.984375,15.3351562 L12,20.7773437 L5.015625,15.3351562 L5.015625,5.31328125 L12,2.93203125 L18.984375,5.31328125 L18.984375,15.3351562 Z M13.1900199,10.9836668 L12.5947074,10.8453856 L12.5947074,7.69772931 C13.4853324,7.81960431 14.0361136,8.37741681 14.1298636,9.06179181 C14.1415824,9.15554181 14.2212699,9.22351056 14.3150199,9.22351056 L15.3673636,9.22351056 C15.4775199,9.22351056 15.5642386,9.12741681 15.5548636,9.01726056 C15.4118949,7.55710431 14.2095511,6.61960431 12.6040824,6.45788556 L12.6040824,5.69147931 C12.6040824,5.58835431 12.5197074,5.50397931 12.4165824,5.50397931 L11.7579886,5.50397931 C11.6548636,5.50397931 11.5704886,5.58835431 11.5704886,5.69147931 L11.5704886,6.46491681 C9.9111136,6.62663556 8.6126761,7.54304181 8.6126761,9.25397931 C8.6126761,10.8383543 9.7798636,11.6024168 11.0056449,11.8953856 L11.5845511,12.0430418 L11.5845511,15.3875731 C10.5486136,15.2492918 9.9673636,14.6961668 9.84783235,13.9508543 C9.83376985,13.8617918 9.75408235,13.7961668 9.6626761,13.7961668 L8.5798636,13.7961668 C8.46970735,13.7961668 8.3829886,13.8899168 8.3923636,14.0000731 C8.49783235,15.2891356 9.4751761,16.4750731 11.5611136,16.6274168 L11.5611136,17.3633543 C11.5611136,17.4664793 11.6454886,17.5508543 11.7486136,17.5508543 L12.4142386,17.5508543 C12.5173636,17.5508543 12.6017386,17.4664793 12.6017386,17.3610106 L12.5970511,16.6180418 C14.4322074,16.4563231 15.7447074,15.4742918 15.7447074,13.7117918 C15.7423636,12.0852293 14.7087699,11.3586668 13.1900199,10.9836668 Z M11.5822074,10.6039793 C11.4509574,10.5664793 11.3408011,10.5313231 11.2306449,10.4867918 C10.4384574,10.2008543 10.0704886,9.73913556 10.0704886,9.14382306 C10.0704886,8.29304181 10.7150199,7.80788556 11.5822074,7.69772931 L11.5822074,10.6039793 Z M12.5947074,15.3946043 L12.5947074,12.2610106 C12.6673636,12.2821043 12.7329886,12.2985106 12.8009574,12.3125731 C13.9095511,12.6500731 14.2822074,13.1188231 14.2822074,13.8383543 C14.2822074,14.7547606 13.5931449,15.3055418 12.5947074,15.3946043 Z" id="形状" fill="#FFFFFF"></path>
                    </g>
                </g>
            </g>
        </g>
    </g>
</svg>