<?xml version="1.0" encoding="utf-8"?>
<!-- Generator: Adobe Illustrator 21.0.0, SVG Export Plug-In . SVG Version: 6.00 Build 0)  -->
<svg version="1.1" id="图层_1" xmlns="http://www.w3.org/2000/svg" xmlns:xlink="http://www.w3.org/1999/xlink" x="0px" y="0px"
	 viewBox="0 0 200 200" style="enable-background:new 0 0 200 200;" xml:space="preserve">
<path class="st0" d="M166.4,30.7H45.6c-3.8,0-6.9,3.2-6.9,7.1v42.9h11.5V42.3h111.6v115.4H50.2v-38.5H38.7v42.9
	c0,3.9,3.1,7.1,6.9,7.1h120.8c3.8,0,6.9-3.2,6.9-7.1v-39.2V98.7V73.2V37.8C173.3,33.9,170.2,30.7,166.4,30.7z"/>
<path class="st0" d="M61.5,116.8c-2.2,2.3-2.2,5.9,0,8.2c1.1,1.1,2.6,1.7,4.1,1.7s2.9-0.6,4.1-1.7l19-19c2.3-2.2,2.3-5.9,0-8.2
	l-19-19c-1.1-1.1-2.6-1.7-4.1-1.7s-2.9,0.6-4.1,1.7c-2.2,2.2-2.2,5.9,0,8.1l9.2,9.2H25.2c-3.2,0-5.8,2.6-5.8,5.8
	c0,3.2,2.6,5.8,5.8,5.8h45.5L61.5,116.8z"/>
<path class="st0" d="M128.4,134.6v4.8h-9.6v-4.8c-10.6,0-19.3-8.7-19.3-19.3h9.6c0,5.3,4.3,9.6,9.6,9.6v-19.3
	c-10.6,0-19.3-8.7-19.3-19.3s8.7-19.3,19.3-19.3v-4.8h9.6v4.8c10.6,0,19.3,8.7,19.3,19.3H138c0-5.3-4.3-9.6-9.6-9.6v19.3h1.9
	c3.4,0,7.7,1.9,11.1,4.8c3.9,3.4,6.7,8.7,6.7,14.5C147.7,125.9,139,134.6,128.4,134.6z M128.4,125c5.3,0,9.6-4.3,9.6-9.6
	s-4.3-9.6-9.6-9.6V125L128.4,125z M118.8,76.8c-5.3,0-9.6,4.3-9.6,9.6s4.3,9.6,9.6,9.6V76.8z"/>
</svg>
