<?xml version="1.0" encoding="UTF-8"?>
<svg width="21px" height="18px" viewBox="0 0 21 18" version="1.1" xmlns="http://www.w3.org/2000/svg" xmlns:xlink="http://www.w3.org/1999/xlink">
    <title>形状结合</title>
    <g id="页面-1" stroke="none" stroke-width="1" fill="none" fill-rule="evenodd">
        <g id="DATA" transform="translate(-49.000000, -215.000000)" fill="#FCD536" fill-rule="nonzero">
            <g id="编组-4" transform="translate(0.000000, -0.052559)">
                <g id="编组-2备份" transform="translate(32.000000, 192.052559)">
                    <g id="property-safety" transform="translate(16.000000, 20.000000)">
                        <path d="M20,3 C21.1045695,3 22,3.8954305 22,5 L22,5 L22,19 C22,20.1045695 21.1045695,21 20,21 L20,21 L3,21 C1.8954305,21 1,20.1045695 1,19 L1,19 L1,5 C1,3.8954305 1.8954305,3 3,3 L3,3 Z M20,5 L3,5 L3,19 L20,19 L20,5 Z M16.2018156,8.2008077 L17.7598546,9.45480717 L12.8177088,15.595205 L8.867,12.805 L6.8032632,15.4439455 L5.2279868,14.2116694 L8.46471384,10.0740092 L12.437,12.878 L16.2018156,8.2008077 Z" id="形状结合"></path>
                    </g>
                </g>
            </g>
        </g>
    </g>
</svg>