<?xml version="1.0" encoding="UTF-8"?>
<svg width="34px" height="35px" viewBox="0 0 34 35" version="1.1" xmlns="http://www.w3.org/2000/svg" xmlns:xlink="http://www.w3.org/1999/xlink">
    <title>形状结合</title>
    <defs>
        <linearGradient x1="125.584848%" y1="-7.86922438%" x2="-28.4621465%" y2="158.960117%" id="linearGradient-1">
            <stop stop-color="#FF8600" offset="0%"></stop>
            <stop stop-color="#FFDC8C" offset="100%"></stop>
        </linearGradient>
        <radialGradient cx="27.1764988%" cy="10.4201774%" fx="27.1764988%" fy="10.4201774%" r="61.7253348%" gradientTransform="translate(0.271765,0.104202),scale(1.000000,0.970149),rotate(97.065167),scale(1.000000,1.402198),translate(-0.271765,-0.104202)" id="radialGradient-2">
            <stop stop-color="#FDF4E5" stop-opacity="0.249207428" offset="0%"></stop>
            <stop stop-color="#FFFFFF" stop-opacity="0" offset="100%"></stop>
        </radialGradient>
        <path d="M29.2758621,0.75 L29.4916298,0.75459562 C32.1386707,0.8675706 34.25,3.04929058 34.25,5.72413793 L34.25,5.72413793 L34.25,29.2758621 L34.2454044,29.4916298 C34.1324294,32.1386707 31.9507094,34.25 29.2758621,34.25 L29.2758621,34.25 L9.72413793,34.25 L9.50837015,34.2454044 C6.86132926,34.1324294 4.75,31.9507094 4.75,29.2758621 L4.75,29.2758621 L4.75,25.25 L4.75645361,25.1221948 C4.8204661,24.4918747 5.35279131,24 6,24 C6.69035594,24 7.25,24.5596441 7.25,25.25 L7.25,25.25 L7.25,29.2758621 L7.25526267,29.4385373 C7.33903069,30.7291351 8.41236643,31.75 9.72413793,31.75 L9.72413793,31.75 L29.2758621,31.75 L29.4385373,31.7447373 C30.7291351,31.6609693 31.75,30.5876336 31.75,29.2758621 L31.75,29.2758621 L31.75,5.72413793 L31.7447373,5.56146268 C31.6609693,4.27086487 30.5876336,3.25 29.2758621,3.25 L29.2758621,3.25 L9.72413793,3.25 L9.56146268,3.25526267 C8.27086487,3.33903069 7.25,4.41236643 7.25,5.72413793 L7.25,5.72413793 L7.25,9.75 L7.24354639,9.87780524 C7.1795339,10.5081253 6.64720869,11 6,11 C5.30964406,11 4.75,10.4403559 4.75,9.75 L4.75,9.75 L4.75,5.72413793 L4.75459562,5.50837015 C4.8675706,2.86132926 7.04929058,0.75 9.72413793,0.75 L9.72413793,0.75 L29.2758621,0.75 Z M21.25,5.75 C22,5.75 22.5,6.25 22.5,7 L22.499618,7.98038587 C23.12364,8.1352418 23.7182389,8.39549258 24.25,8.75 C25.75,9.75 26.75,11.5 26.75,13.25 C26.75,14 26.25,14.5 25.5,14.5 C24.75,14.5 24.25,14 24.25,13.25 C24.25,12.25 23.75,11.25 23,10.75 C22,10.25 21,10 20,10.5 C18.75,11 18,12.25 18.25,13.5 C18.5,14 18.75,15.25 21.25,15.5 C24,15.75 25.75,16.75 26.25,18.5 C26.75,19.75 26.75,21.5 26,22.75 C25.25,24 24.25,25 22.75,25.5 C22.6664439,25.5417781 22.5828877,25.5765745 22.4993316,25.6055561 L22.5,26.5 C22.5,27.25 22,27.75 21.25,27.75 C20.5,27.75 20,27.25 20,26.5 L19.9999363,25.6438895 C19.2887029,25.5089328 18.6443515,25.2332636 18,24.75 C16.5,23.75 15.75,22 15.75,20.25 C15.75,19.5 16.25,19 17,19 C17.75,19 18.25,19.5 18.25,20.25 C18.25,21.25 18.75,22 19.5,22.75 C20.25,23.25 21.25,23.5 22.25,23.25 C23,23 23.5,22.5 24,21.75 C24.25,21 24.5,20.25 24.25,19.5 C24,19 23.5,18.25 21.25,18 C17.5,17.75 16.25,15.75 16,14.25 C15.25,11.75 16.75,9.25 19,8.25 C19.3261683,8.11021358 19.6610212,8.00516537 19.9997027,7.93323673 L20,7 C20,6.25 20.5,5.75 21.25,5.75 Z M8.11611652,14.2876894 C8.60427189,13.799534 9.39572811,13.799534 9.88388348,14.2876894 L9.88388348,14.2876894 L12.7123106,17.1161165 L12.7981192,17.2110519 C13.1985591,17.7020191 13.1699563,18.4262378 12.7123106,18.8838835 L12.7123106,18.8838835 L9.88388348,21.7123106 L9.78894813,21.7981192 C9.29798085,22.1985591 8.57376218,22.1699563 8.11611652,21.7123106 L8.11611652,21.7123106 L8.03030796,21.6173753 C7.62986802,21.126408 7.65847087,20.4021893 8.11611652,19.9445436 L8.11611652,19.9445436 L10.0613673,17.9992929 L8.11611652,16.0554564 L8.03030796,15.960521 C7.62986802,15.4695537 7.65847087,14.7453351 8.11611652,14.2876894 Z M2.11611652,14.2876894 C2.60427189,13.799534 3.39572811,13.799534 3.88388348,14.2876894 L3.88388348,14.2876894 L6.7123106,17.1161165 L6.79811916,17.2110519 C7.19855911,17.7020191 7.16995626,18.4262378 6.7123106,18.8838835 L6.7123106,18.8838835 L3.88388348,21.7123106 L3.78894813,21.7981192 C3.29798085,22.1985591 2.57376218,22.1699563 2.11611652,21.7123106 L2.11611652,21.7123106 L2.03030796,21.6173753 C1.62986802,21.126408 1.65847087,20.4021893 2.11611652,19.9445436 L2.11611652,19.9445436 L4.06136728,17.9992929 L2.11611652,16.0554564 L2.03030796,15.960521 C1.62986802,15.4695537 1.65847087,14.7453351 2.11611652,14.2876894 Z" id="path-3"></path>
    </defs>
    <g id="页面-1" stroke="none" stroke-width="1" fill="none" fill-rule="evenodd">
        <g id="NOMOS——夜晚备份-2" transform="translate(-321.000000, -427.000000)">
            <g id="编组-15" transform="translate(280.000000, 300.000000)">
                <g id="编组-27" transform="translate(35.000000, 127.000000)">
                    <g id="存款" transform="translate(5.000000, 0.000000)">
                        <rect id="矩形" fill="#000000" fill-rule="nonzero" opacity="0" x="0" y="0" width="36" height="36"></rect>
                        <path d="M31.2758621,1.75 L31.4916298,1.75459562 C34.1386707,1.8675706 36.25,4.04929058 36.25,6.72413793 L36.25,6.72413793 L36.25,30.2758621 L36.2454044,30.4916298 C36.1324294,33.1386707 33.9507094,35.25 31.2758621,35.25 L31.2758621,35.25 L11.7241379,35.25 L11.5083702,35.2454044 C8.86132926,35.1324294 6.75,32.9507094 6.75,30.2758621 L6.75,30.2758621 L6.75,26.25 L6.75645361,26.1221948 C6.8204661,25.4918747 7.35279131,25 8,25 C8.69035594,25 9.25,25.5596441 9.25,26.25 L9.25,26.25 L9.25,30.2758621 L9.25526267,30.4385373 C9.33903069,31.7291351 10.4123664,32.75 11.7241379,32.75 L11.7241379,32.75 L31.2758621,32.75 L31.4385373,32.7447373 C32.7291351,32.6609693 33.75,31.5876336 33.75,30.2758621 L33.75,30.2758621 L33.75,6.72413793 L33.7447373,6.56146268 C33.6609693,5.27086487 32.5876336,4.25 31.2758621,4.25 L31.2758621,4.25 L11.7241379,4.25 L11.5614627,4.25526267 C10.2708649,4.33903069 9.25,5.41236643 9.25,6.72413793 L9.25,6.72413793 L9.25,10.75 L9.24354639,10.8778052 C9.1795339,11.5081253 8.64720869,12 8,12 C7.30964406,12 6.75,11.4403559 6.75,10.75 L6.75,10.75 L6.75,6.72413793 L6.75459562,6.50837015 C6.8675706,3.86132926 9.04929058,1.75 11.7241379,1.75 L11.7241379,1.75 L31.2758621,1.75 Z M23.25,6.75 C24,6.75 24.5,7.25 24.5,8 L24.499618,8.98038587 C25.12364,9.1352418 25.7182389,9.39549258 26.25,9.75 C27.75,10.75 28.75,12.5 28.75,14.25 C28.75,15 28.25,15.5 27.5,15.5 C26.75,15.5 26.25,15 26.25,14.25 C26.25,13.25 25.75,12.25 25,11.75 C24,11.25 23,11 22,11.5 C20.75,12 20,13.25 20.25,14.5 C20.5,15 20.75,16.25 23.25,16.5 C26,16.75 27.75,17.75 28.25,19.5 C28.75,20.75 28.75,22.5 28,23.75 C27.25,25 26.25,26 24.75,26.5 C24.6664439,26.5417781 24.5828877,26.5765745 24.4993316,26.6055561 L24.5,27.5 C24.5,28.25 24,28.75 23.25,28.75 C22.5,28.75 22,28.25 22,27.5 L21.9999363,26.6438895 C21.2887029,26.5089328 20.6443515,26.2332636 20,25.75 C18.5,24.75 17.75,23 17.75,21.25 C17.75,20.5 18.25,20 19,20 C19.75,20 20.25,20.5 20.25,21.25 C20.25,22.25 20.75,23 21.5,23.75 C22.25,24.25 23.25,24.5 24.25,24.25 C25,24 25.5,23.5 26,22.75 C26.25,22 26.5,21.25 26.25,20.5 C26,20 25.5,19.25 23.25,19 C19.5,18.75 18.25,16.75 18,15.25 C17.25,12.75 18.75,10.25 21,9.25 C21.3261683,9.11021358 21.6610212,9.00516537 21.9997027,8.93323673 L22,8 C22,7.25 22.5,6.75 23.25,6.75 Z M10.1161165,15.2876894 C10.6042719,14.799534 11.3957281,14.799534 11.8838835,15.2876894 L11.8838835,15.2876894 L14.7123106,18.1161165 L14.7981192,18.2110519 C15.1985591,18.7020191 15.1699563,19.4262378 14.7123106,19.8838835 L14.7123106,19.8838835 L11.8838835,22.7123106 L11.7889481,22.7981192 C11.2979809,23.1985591 10.5737622,23.1699563 10.1161165,22.7123106 L10.1161165,22.7123106 L10.030308,22.6173753 C9.62986802,22.126408 9.65847087,21.4021893 10.1161165,20.9445436 L10.1161165,20.9445436 L12.0613673,18.9992929 L10.1161165,17.0554564 L10.030308,16.960521 C9.62986802,16.4695537 9.65847087,15.7453351 10.1161165,15.2876894 Z M4.11611652,15.2876894 C4.60427189,14.799534 5.39572811,14.799534 5.88388348,15.2876894 L5.88388348,15.2876894 L8.7123106,18.1161165 L8.79811916,18.2110519 C9.19855911,18.7020191 9.16995626,19.4262378 8.7123106,19.8838835 L8.7123106,19.8838835 L5.88388348,22.7123106 L5.78894813,22.7981192 C5.29798085,23.1985591 4.57376218,23.1699563 4.11611652,22.7123106 L4.11611652,22.7123106 L4.03030796,22.6173753 C3.62986802,22.126408 3.65847087,21.4021893 4.11611652,20.9445436 L4.11611652,20.9445436 L6.06136728,18.9992929 L4.11611652,17.0554564 L4.03030796,16.960521 C3.62986802,16.4695537 3.65847087,15.7453351 4.11611652,15.2876894 Z" id="形状结合" opacity="0.100000001" fill-rule="nonzero"></path>
                        <g id="形状结合">
                            <use fill="url(#linearGradient-1)" xlink:href="#path-3"></use>
                            <use fill="url(#radialGradient-2)" xlink:href="#path-3"></use>
                        </g>
                    </g>
                </g>
            </g>
        </g>
    </g>
</svg>