<?xml version="1.0" encoding="utf-8"?>
<!-- Generator: Adobe Illustrator 21.0.0, SVG Export Plug-In . SVG Version: 6.00 Build 0)  -->
<svg version="1.1" id="图层_1" xmlns="http://www.w3.org/2000/svg" xmlns:xlink="http://www.w3.org/1999/xlink" x="0px" y="0px"
	 viewBox="0 0 200 200" style="enable-background:new 0 0 200 200;" xml:space="preserve">
<style type="text/css">
	.st0{fill:#472710;}
</style>
<path class="st0" d="M142.4,105.6H57.1c-3.1,0-5.6-2.5-5.6-5.6c0-3.1,2.5-5.6,5.6-5.6h85.3c3.1,0,5.6,2.5,5.6,5.6
	C148,103.1,145.5,105.6,142.4,105.6L142.4,105.6z M142.4,150H57.1c-3.1,0-5.6-2.5-5.6-5.6c0-3.1,2.5-5.6,5.6-5.6h85.3
	c3.1,0,5.6,2.5,5.6,5.6C148,147.5,145.5,150,142.4,150L142.4,150z"/>
<path class="st0" d="M152.1,200H47.9c-20.3-0.1-36.8-16.7-36.8-37V37c0-20.3,16.4-36.9,36.8-37h83.8l57.2,66.7v96
	c0.2,20.4-16.2,37.1-36.7,37.3C152.2,200,152.1,200,152.1,200z M47.9,11.1C33.7,11.2,22.2,22.8,22.2,37v126
	c0,14.2,11.5,25.8,25.7,25.9h104.2c14.2-0.1,25.7-11.7,25.7-25.9V71.1l-51.2-60H47.9z"/>
<path class="st0" d="M183.3,71.1h-37.9c-15.3-0.1-27.7-12.5-27.8-27.8V5.6h11.1v37.8c0,9.2,7.5,16.7,16.7,16.7h37.9V71.1z"/>
</svg>
