<?xml version="1.0" encoding="utf-8"?>
<!-- Generator: Adobe Illustrator 21.0.0, SVG Export Plug-In . SVG Version: 6.00 Build 0)  -->
<svg version="1.1" id="图层_1" xmlns="http://www.w3.org/2000/svg" xmlns:xlink="http://www.w3.org/1999/xlink" x="0px" y="0px"
	 viewBox="0 0 200 200" style="enable-background:new 0 0 200 200;" xml:space="preserve">
<style type="text/css">
	.st0{fill:#d3d3d3;}
	.st1{fill:#ffffff;}
</style>
<circle class="st0" cx="100.2" cy="100.6" r="98"/>
<path class="st1" d="M65.2,56.5c-5.1-0.3-9.4,3.6-9.6,8.7c0,0.4,0,0.7,0,1.1c-0.2,5,3.7,9.3,8.7,9.5c0.3,0,0.6,0,0.9,0
	c5.2,0.2,9.5-3.8,9.7-9c0-0.2,0-0.4,0-0.6c0.2-5.2-3.9-9.5-9-9.7C65.7,56.4,65.4,56.4,65.2,56.5z M144.9,144.8v-36.5
	c0-18.1-9-26.4-21.1-26.4c-7.3-0.1-14.2,3.6-18.2,9.7h-0.4l-0.8-8.4H88.6c0.2,5.4,0.5,11.9,0.5,19.6v42h18.3v-35.5
	c-0.1-1.6,0.2-3.3,0.7-4.8c1.1-4.2,4.9-7.1,9.3-7.2c6.6,0,9.3,5.4,9.3,13.3v34.1H144.9z M56.1,83.3h18.3v61.5H56.1V83.3z"/>
</svg>
