<?xml version="1.0" encoding="utf-8"?>
<!-- Generator: Adobe Illustrator 21.0.0, SVG Export Plug-In . SVG Version: 6.00 Build 0)  -->
<svg version="1.1" id="图层_1" xmlns="http://www.w3.org/2000/svg" xmlns:xlink="http://www.w3.org/1999/xlink" x="0px" y="0px"
	 viewBox="0 0 200 200" style="enable-background:new 0 0 200 200;" xml:space="preserve">
<path d="M99.9,112.4c-14.8,0-28.6-5.8-39.1-16.2C50.4,85.8,44.6,71.9,44.6,57.1s5.8-28.6,16.2-39.1
	C71.3,7.6,85.1,1.9,99.9,1.9s28.6,5.8,39.1,16.2c10.4,10.4,16.2,24.3,16.2,39.1s-5.8,28.6-16.2,39.1
	C128.6,106.7,114.7,112.4,99.9,112.4z M99.9,14.4c-23.6,0-42.8,19.2-42.8,42.8s19.2,42.8,42.8,42.8c23.6,0,42.8-19.2,42.8-42.8
	S123.5,14.4,99.9,14.4z M14.3,199.4c-3.5,0-6.3-2.8-6.3-6.3c0-12.3,2.4-24.3,7.2-35.6c4.6-10.9,11.2-20.7,19.6-29.1
	s18.2-15,29.1-19.6c11.3-4.8,23.2-7.2,35.6-7.2c14.8,0,29.6,3.6,42.6,10.5c3.1,1.6,4.2,5.4,2.6,8.4c-1.6,3.1-5.4,4.2-8.4,2.6
	c-11.3-5.9-24-9.1-36.8-9.1c-43.5,0-78.9,35.4-78.9,78.9C20.5,196.6,17.7,199.4,14.3,199.4z M190,166.3h-55.1
	c-3.5,0-6.3-2.8-6.3-6.3s2.8-6.3,6.3-6.3H190c3.5,0,6.3,2.8,6.3,6.3S193.5,166.3,190,166.3z M162.5,193.8c-3.5,0-6.3-2.8-6.3-6.3
	v-55.1c0-3.5,2.8-6.2,6.3-6.2s6.3,2.8,6.3,6.2v55.1C168.7,191,165.9,193.8,162.5,193.8z"/>
</svg>
