<?xml version="1.0" encoding="UTF-8"?>
<svg width="20px" height="19px" viewBox="0 0 20 19" version="1.1" xmlns="http://www.w3.org/2000/svg" xmlns:xlink="http://www.w3.org/1999/xlink">
    <title>形状</title>
    <g id="页面-1" stroke="none" stroke-width="1" fill="none" fill-rule="evenodd">
        <g id="NOMOS——昼日备份-6" transform="translate(-50.000000, -1657.000000)" fill-rule="nonzero">
            <g id="编组-4" transform="translate(0.000000, -0.052559)">
                <g id="编组-19" transform="translate(24.000000, 1635.052559)">
                    <g id="中英文2-中文" transform="translate(24.000000, 20.000000)">
                        <path d="M6.26232722,8.60708799 C6.49367709,9.28823108 6.87795314,9.8798525 7.41319478,10.4014135 C7.86805215,9.91099047 8.21115577,9.30769231 8.43270268,8.60708799 L6.26232722,8.60708799 Z M20.4217234,4.57666701 L11.9382413,4.57666701 L11.4539751,2 L3.57631605,2 C2.70777375,2 2,2.70255045 2,3.56468299 L2,16.85865 C2,17.7207825 2.70777375,18.423333 3.57631605,18.423333 L10.7579649,18.423333 L10.1815508,21 L20.423684,21 C21.2922263,21 22,20.2974496 22,19.435317 L22,6.14134999 C21.9980394,5.27727133 21.2902657,4.57666701 20.4217234,4.57666701 Z M9.72669346,12.4759807 C8.79737281,12.1354092 8.0307813,11.7033699 7.41319478,11.2032162 C6.76619939,11.7753764 5.95843545,12.195739 5.01931183,12.4565195 L4.69581414,11.9252279 C5.61533183,11.6839086 6.38192334,11.3238759 6.9877463,10.8120455 C6.36231742,10.1795555 5.92706597,9.44781317 5.68395255,8.6168186 L4.80560729,8.6168186 L4.80560729,8.01546656 L7.09753946,8.01546656 C6.95637683,7.75468606 6.77404176,7.50363618 6.56229781,7.26426303 L7.16812077,7.04435112 C7.37986472,7.31486223 7.57200274,7.63597255 7.74453485,8.00768206 L9.93647682,8.00768206 L9.93647682,8.60903411 L9.05813156,8.60903411 C8.77580629,9.47116665 8.37192432,10.1931783 7.83668268,10.7750691 C8.43270268,11.2460309 9.17968827,11.6372017 10.0580335,11.958312 L9.72669346,12.4759807 L9.72669346,12.4759807 Z M21.2098814,19.4236403 C21.2098814,19.8556796 20.8569748,20.2059818 20.4217234,20.2059818 L11.1716498,20.2059818 L11.5657289,18.4116563 L14.5242623,18.4116563 L12.8381531,9.07804978 L12.8283502,9.12864898 L12.7577688,8.75693947 L12.7773748,8.76667008 L12.1617488,5.35706238 L20.4334869,5.35706238 C20.8687384,5.35706238 21.2216449,5.70736454 21.2216449,6.13940387 L21.2216449,19.4236403 L21.2098814,19.4236403 Z M14.8065876,12.0458875 L16.9789236,12.0458875 L16.9789236,11.4737273 L14.8065876,11.4737273 L14.8065876,10.3313531 L17.1200863,10.3313531 L17.1200863,9.75919287 L14.1301833,9.75919287 L14.1301833,13.8694049 L17.2102735,13.8694049 L17.2102735,13.2972447 L14.8065876,13.2972447 L14.8065876,12.0458875 Z M19.3414371,10.8120455 C19.159102,10.8120455 18.9983335,10.8412373 18.8473679,10.9229745 C18.7062053,10.9930349 18.5650426,11.1039639 18.4532889,11.2440848 L18.4532889,10.8937826 L17.7964905,10.8937826 L17.7964905,13.871351 L18.4532889,13.871351 L18.4532889,12.0770255 C18.4728948,11.8357062 18.5552397,11.6566629 18.6964023,11.5262727 C18.817959,11.4153436 18.9591217,11.3550138 19.1198902,11.3550138 C19.5747476,11.3550138 19.7962945,11.5963331 19.7962945,12.0867561 L19.7962945,13.8616204 L20.4530928,13.8616204 L20.4530928,12.0244802 C20.4726988,11.2129468 20.0884227,10.8120455 19.3414371,10.8120455 L19.3414371,10.8120455 Z" id="形状"></path>
                    </g>
                </g>
            </g>
        </g>
    </g>
</svg>