<?xml version="1.0" encoding="UTF-8"?>
<svg width="22px" height="18px" viewBox="0 0 22 18" version="1.1" xmlns="http://www.w3.org/2000/svg" xmlns:xlink="http://www.w3.org/1999/xlink">
    <title>形状</title>
    <g id="页面-1" stroke="none" stroke-width="1" fill="none" fill-rule="evenodd">
        <g id="NOMOS——夜晚" transform="translate(-49.000000, -143.000000)" fill="#FCD536" fill-rule="nonzero">
            <g id="编组-4" transform="translate(0.000000, -0.052559)">
                <g id="credit-card" transform="translate(48.000000, 140.052559)">
                    <path d="M21.75,3.75 L2.25,3.75 C1.83515625,3.75 1.5,4.08515625 1.5,4.5 L1.5,19.5 C1.5,19.9148437 1.83515625,20.25 2.25,20.25 L21.75,20.25 C22.1648438,20.25 22.5,19.9148437 22.5,19.5 L22.5,4.5 C22.5,4.08515625 22.1648438,3.75 21.75,3.75 Z M3.1875,5.4375 L20.8125,5.4375 L20.8125,8.25 L3.1875,8.25 L3.1875,5.4375 Z M20.8125,18.5625 L3.1875,18.5625 L3.1875,10.3125 L20.8125,10.3125 L20.8125,18.5625 Z M15.2578125,17.0625 L19.125,17.0625 C19.228125,17.0625 19.3125,16.978125 19.3125,16.875 L19.3125,15.1875 C19.3125,15.084375 19.228125,15 19.125,15 L15.2578125,15 C15.1546875,15 15.0703125,15.084375 15.0703125,15.1875 L15.0703125,16.875 C15.0703125,16.978125 15.1546875,17.0625 15.2578125,17.0625 Z" id="形状"></path>
                </g>
            </g>
        </g>
    </g>
</svg>