<?xml version="1.0" encoding="UTF-8"?>
<svg width="38px" height="36px" viewBox="0 0 38 36" version="1.1" xmlns="http://www.w3.org/2000/svg" xmlns:xlink="http://www.w3.org/1999/xlink">
    <title>形状结合</title>
    <defs>
        <linearGradient x1="130.307783%" y1="0.102556675%" x2="-33.36487%" y2="143.950305%" id="linearGradient-1">
            <stop stop-color="#FF8600" offset="0%"></stop>
            <stop stop-color="#FFDC8C" offset="100%"></stop>
        </linearGradient>
        <radialGradient cx="27.1764988%" cy="10.4201774%" fx="27.1764988%" fy="10.4201774%" r="59.987889%" gradientTransform="translate(0.271765,0.104202),scale(0.928571,1.000000),rotate(97.833570),scale(1.000000,1.402198),translate(-0.271765,-0.104202)" id="radialGradient-2">
            <stop stop-color="#FDF4E5" stop-opacity="0.249207428" offset="0%"></stop>
            <stop stop-color="#FFFFFF" stop-opacity="0" offset="100%"></stop>
        </radialGradient>
        <path d="M34.6666667,2.66666668 C36.8758057,2.66666668 38.6666667,4.45752768 38.6666667,6.66666668 L38.6666667,10.6666667 C38.6666667,11.7275326 38.2452393,12.7449483 37.4950938,13.4950938 C36.7449483,14.2452393 35.7275326,14.6666667 34.6666667,14.6666667 L33.3333333,14.6666667 L33.3333333,33.3333333 C33.3333333,35.5424723 31.5424723,37.3333333 29.3333333,37.3333333 L10.6666667,37.3333333 C8.45752768,37.3333333 6.66666668,35.5424723 6.66666668,33.3333333 L6.66666668,14.6666667 L5.33333332,14.6666667 C3.12419432,14.6666667 1.33333332,12.8758057 1.33333332,10.6666667 L1.33333332,6.66666668 C1.33333332,4.45752768 3.12419432,2.66666668 5.33333332,2.66666668 L34.6666667,2.66666668 Z M30.6666667,10.6666667 L9.33333332,10.6666667 L9.33333332,33.3333333 C9.33333332,33.6869553 9.4738091,34.0260939 9.72385761,34.2761424 C9.97390612,34.5261909 10.3130447,34.6666667 10.6666667,34.6666667 L29.3333333,34.6666667 C29.6869553,34.6666667 30.0260939,34.5261909 30.2761424,34.2761424 C30.5261909,34.0260939 30.6666667,33.6869553 30.6666667,33.3333333 L30.6666667,10.6666667 Z M25.6614963,25 C26.4007315,25 27,25.5992685 27,26.3385037 C27,27.0777389 26.4007315,27.6770075 25.6614963,27.6770075 L14.3385037,27.6770075 C13.5992685,27.6770075 13,27.0777389 13,26.3385037 C13,25.5992685 13.5992685,25 14.3385037,25 L25.6614963,25 Z M21.6614963,17 C22.4007315,17 23,17.5992685 23,18.3385037 C23,19.0777389 22.4007315,19.6770075 21.6614963,19.6770075 L14.3385037,19.6770075 C13.5992685,19.6770075 13,19.0777389 13,18.3385037 C13,17.5992685 13.5992685,17 14.3385037,17 L21.6614963,17 Z M34.6666667,5.33333332 L5.33333332,5.33333332 C4.97971133,5.33333332 4.64057278,5.47380911 4.39052427,5.72385762 C4.14047577,5.97390613 4,6.31304469 4,6.66666668 L4,10.6666667 C4,11.4030463 4.59695366,12 5.33333332,12 L6.66666668,12 L6.66666668,8 L33.3333333,8 L33.3333333,12 L34.6666667,12 C35.4030463,12 36,11.4030463 36,10.6666667 L36,6.66666668 C36,6.31304469 35.8595242,5.97390613 35.6094757,5.72385762 C35.3594272,5.47380911 35.0202887,5.33333332 34.6666667,5.33333332 Z" id="path-3"></path>
    </defs>
    <g id="页面-1" stroke="none" stroke-width="1" fill="none" fill-rule="evenodd">
        <g id="NOMOS——夜晚备份-2" transform="translate(-498.000000, -427.000000)">
            <g id="车主贷款" transform="translate(497.000000, 425.000000)">
                <rect id="矩形" fill="#000000" fill-rule="nonzero" opacity="0" x="0" y="0" width="40" height="40"></rect>
                <g id="形状结合">
                    <use fill="#F3DA9E" xlink:href="#path-3"></use>
                    <use fill="url(#linearGradient-1)" xlink:href="#path-3"></use>
                    <use fill="url(#radialGradient-2)" xlink:href="#path-3"></use>
                </g>
            </g>
        </g>
    </g>
</svg>