<?xml version="1.0" encoding="utf-8"?>
<!-- Generator: Adobe Illustrator 21.0.0, SVG Export Plug-In . SVG Version: 6.00 Build 0)  -->
<svg version="1.1" id="图层_1" xmlns="http://www.w3.org/2000/svg" xmlns:xlink="http://www.w3.org/1999/xlink" x="0px" y="0px"
	 viewBox="0 0 200 200" style="enable-background:new 0 0 200 200;" xml:space="preserve">
<style type="text/css">
	.st0{fill:#FFE8CD;}
	.st1{fill:#FF8C04;}
</style>
<circle class="st0" cx="100.5" cy="100" r="98"/>
<g>
	<path class="st1" d="M142.5,121.4h-32.7c-1.7,0-3-1.3-3-3c0-1.7,1.3-3,3-3h25.4l-3.2-3.2c-1.2-1.2-1.2-3.1,0-4.3
		c1.2-1.2,3.1-1.2,4.3,0l8.2,8.1c1.3,1,1.5,2.9,0.5,4.2C144.2,121,143.4,121.4,142.5,121.4z"/>
	<path class="st1" d="M134,103c-1.7,0-3-1.4-3-3l0,0V63.1c0-1.1-0.9-2-2-2H63.6c-1.1,0-2,0.9-2,2v73.8c0,1.1,0.9,2,2,2h39.9v0
		c0,0,0,0,0,0c1.7,0,3,1.4,3,3c0,1.7-1.4,3-3,3c0,0,0,0,0,0v0H60.6c-2.8,0-5-2.3-5-5l0,0V60c0-2.8,2.3-5,5-5H132c2.8,0,5,2.3,5,5
		V100C137,101.6,135.7,103,134,103L134,103z"/>
	<path class="st1" d="M144.8,128.4c1,1.3,0.8,3.2-0.5,4.2l-8.2,8.2l0,0c-1.2,1.2-3.1,1.2-4.3,0c-1.2-1.2-1.2-3.1,0-4.3l3.2-3.2
		h-25.4c-1.7,0-3-1.4-3-3c0-1.7,1.4-3,3-3h32.7C143.4,127.3,144.2,127.7,144.8,128.4z"/>
	<path class="st1" d="M93.8,112.4v2.8h-5.5v-2.8c-6.1,0-11.2-5-11.2-11.2h5.5c0,3.1,2.5,5.5,5.5,5.5V95.7c-6.1,0-11.1-5-11.1-11.2
		s5-11.2,11.2-11.2v-2.8h5.5v2.8c6.1,0,11.2,5,11.2,11.2h-5.5c0-3.1-2.5-5.5-5.5-5.5v11.2h1.1c2,0,4.5,1.1,6.4,2.8
		c2.3,2,3.9,5,3.9,8.4C104.9,107.4,99.9,112.4,93.8,112.4z M93.8,106.8c3.1,0,5.5-2.5,5.5-5.5c0-3.1-2.5-5.5-5.5-5.5V106.8
		L93.8,106.8z M88.2,79c-3.1,0-5.5,2.5-5.5,5.5s2.5,5.5,5.5,5.5V79z"/>
</g>
</svg>
