<?xml version="1.0" encoding="utf-8"?>
<!-- Generator: Adobe Illustrator 21.0.0, SVG Export Plug-In . SVG Version: 6.00 Build 0)  -->
<svg version="1.1" id="图层_1" xmlns="http://www.w3.org/2000/svg" xmlns:xlink="http://www.w3.org/1999/xlink" x="0px" y="0px"
	 viewBox="0 0 200 200" style="enable-background:new 0 0 200 200;" xml:space="preserve">
<path class="st0" d="M185.8,151.8l-1.5-3.3c-1.9-4.9-5.7-9-10.8-11.5c-2.7-1.2-5.5-1.9-8.4-1.9c-2.6,0-5.1,0.5-7.6,1.4l-25.7,9.5
	c0.4-0.9,0.4-1.8,0.4-2.3c0-1.4-1.2-2.5-2.2-3h0l-51.8-22.5l0,0c-6.9-2.4-13.5-3.7-19.7-3.7c-4.7,0-9.4,0.7-13.7,2.2l-9,3
	c-1.6,0.5-2.7,2.1-2.7,3.8v37.1c0,1.7,1.1,3.3,2.7,3.8l45.8,16.2c6.4,2,12.9,3.1,18.8,3.1c6.9,0,13.5-1.2,19.6-3.5l63.9-22.9l0.1,0
	c1-0.5,1.5-1.1,2.1-2.1C186.3,154,186.3,152.9,185.8,151.8z M117.1,172.5c-5.6,2-11.4,2.9-17.2,2.9c-5.4,0-10.8-0.9-16.1-2.6
	l-42.7-15.1v-31.6l6.6-2c3.8-1.1,7.5-1.6,11.4-1.6c5.3,0,10.8,1,16.6,3.1l46.3,20.2l-5.5,5.8c-1.9,1.9-4.2,2.9-6.6,2.9
	c-1,0-2-0.2-3-0.6l-23.2-8.6c-0.5-0.3-1.1-0.4-1.7-0.4c-1.7,0-3.2,1.1-3.7,2.6c-0.5,1.1-0.5,2.3,0,3.4c0.4,1,1.3,1.7,2.3,2l23.2,8.6
	c1.9,0.7,3.9,1.1,5.9,1.1c3.4,0,6.6-1,9.4-3l41.5-15.7c1.5-0.5,3-0.7,4.5-0.7c1.8,0,3.5,0.4,5.1,1.1c3.1,1.4,5.3,3.7,6.7,6.8
	L117.1,172.5z"/>
<path class="st0" d="M17.4,164.5c-2.4,0-4.9-1.8-4.9-4.9v-33.8l0.1-0.2c0.6-2.5,2.5-4,4.8-4c2.4,0,4.9,1.8,4.9,4.9v33.9
	C22.2,162.5,20,164.5,17.4,164.5z"/>
<path class="st0" d="M155,137.8l0.4-0.3c1.5-1.3,3-2.7,4.5-4.1c11.8-12,18.3-28,18.3-45.1c0.3-16.5-5.9-32.1-17.6-44.1
	c-5.8-6-12.7-10.7-20.4-14c-8-3.4-16.4-5.1-25.1-5.1c-17,0-32.9,6.6-44.8,18.6C64.5,49.5,60,56.2,56.8,63.8
	c-3.3,7.8-4.9,16-4.9,24.4c0,9.4,2,18.5,6,27l0.8,1.7l-1.9,0.1c-2.4,0.1-4.8,0.4-7.2,0.9l-1,0.2l-0.4-1c-3.7-9-5.6-18.5-5.6-28.2
	c0-19.4,7.6-37.6,21.4-51.3c6.7-6.6,14.4-11.9,23.1-15.5c8.9-3.8,18.3-5.7,28-5.7c19.4,0,37.6,7.6,51.3,21.4
	c6.6,6.7,11.9,14.4,15.5,23.1c3.8,8.9,5.7,18.3,5.7,28c0.3,17.8-6.1,35.1-18,48.6l-0.5,0.5l-0.7-0.1c-1-0.2-2.1-0.3-3.1-0.3
	c-2.2,0-4.5,0.4-6.7,1.3l-2.4,0.9L155,137.8z"/>
<path class="st0" d="M119.9,113.6v4.8h-9.6v-4.8c-10.6,0-19.3-8.7-19.3-19.3h9.6c0,5.3,4.3,9.6,9.6,9.6V84.7
	C99.7,84.7,91,76,91,65.4s8.7-19.3,19.3-19.3v-4.8h9.6v4.8c10.6,0,19.3,8.7,19.3,19.3h-9.6c0-5.3-4.3-9.6-9.6-9.6v19.3h1.9
	c3.4,0,7.7,1.9,11.1,4.8c3.9,3.4,6.7,8.7,6.7,14.5C139.2,104.9,130.5,113.6,119.9,113.6z M119.9,104c5.3,0,9.6-4.3,9.6-9.6
	s-4.3-9.6-9.6-9.6V104L119.9,104z M110.3,55.8c-5.3,0-9.6,4.3-9.6,9.6s4.3,9.6,9.6,9.6V55.8z"/>
</svg>
