<?xml version="1.0" encoding="UTF-8"?>
<svg width="20px" height="20px" viewBox="0 0 20 20" version="1.1" xmlns="http://www.w3.org/2000/svg" xmlns:xlink="http://www.w3.org/1999/xlink">
    <title>形状</title>
    <g id="页面-1" stroke="none" stroke-width="1" fill="none" fill-rule="evenodd">
        <g id="NOMOS——昼日备份-6" transform="translate(-1348.000000, -684.000000)" fill="#9A9A9A" fill-rule="nonzero">
            <g id="编组-22" transform="translate(280.000000, 640.000000)">
                <path d="M1078,44 C1072.48,44 1068,48.48 1068,54 C1068,59.52 1072.48,64 1078,64 C1083.52,64 1088,59.52 1088,54 C1088,48.48 1083.52,44 1078,44 Z M1078,62.58 C1073.27,62.58 1069.42,58.73 1069.42,54 C1069.42,49.27 1073.27,45.42 1078,45.42 C1082.73,45.42 1086.58,49.27 1086.58,54 C1086.58,58.73 1082.73,62.58 1078,62.58 Z M1078,55.58 C1077.66,55.58 1077.38,55.32 1077.35,54.98 L1076.97,50.28 C1076.94,49.9 1077.24,49.58 1077.62,49.58 L1078.37,49.58 C1078.75,49.58 1079.05,49.9 1079.02,50.28 L1078.64,54.98 C1078.62,55.32 1078.34,55.58 1078,55.58 L1078,55.58 Z M1076.92,57.34 C1076.92,57.9364675 1077.40353,58.42 1078,58.42 C1078.59647,58.42 1079.08,57.9364675 1079.08,57.34 C1079.08,56.7435325 1078.59647,56.26 1078,56.26 C1077.40353,56.26 1076.92,56.7435325 1076.92,57.34 L1076.92,57.34 Z" id="形状" transform="translate(1078.000000, 54.000000) scale(1, -1) translate(-1078.000000, -54.000000) "></path>
            </g>
        </g>
    </g>
</svg>