<?xml version="1.0" encoding="UTF-8"?>
<svg width="20px" height="20px" viewBox="0 0 20 20" version="1.1" xmlns="http://www.w3.org/2000/svg" xmlns:xlink="http://www.w3.org/1999/xlink">
    <title>形状</title>
    <g id="页面-1" stroke="none" stroke-width="1" fill="none" fill-rule="evenodd">
        <g id="NOMOS——昼日备份-6" transform="translate(-295.000000, -50.000000)" fill="#FC6965" fill-rule="nonzero">
            <g id="编组-12" transform="translate(283.000000, 40.000000)">
                <path d="M22,10 C16.48,10 12,14.48 12,20 C12,25.52 16.48,30 22,30 C27.52,30 32,25.52 32,20 C32,14.48 27.52,10 22,10 Z M22,28.58 C17.27,28.58 13.42,24.73 13.42,20 C13.42,15.27 17.27,11.42 22,11.42 C26.73,11.42 30.58,15.27 30.58,20 C30.58,24.73 26.73,28.58 22,28.58 Z M22,21.58 C21.66,21.58 21.38,21.32 21.35,20.98 L20.97,16.28 C20.94,15.9 21.24,15.58 21.62,15.58 L22.37,15.58 C22.75,15.58 23.05,15.9 23.02,16.28 L22.64,20.98 C22.62,21.32 22.34,21.58 22,21.58 L22,21.58 Z M20.92,23.34 C20.92,23.9364675 21.4035325,24.42 22,24.42 C22.5964675,24.42 23.08,23.9364675 23.08,23.34 C23.08,22.7435325 22.5964675,22.26 22,22.26 C21.4035325,22.26 20.92,22.7435325 20.92,23.34 L20.92,23.34 Z" id="形状"></path>
            </g>
        </g>
    </g>
</svg>