<?xml version="1.0" encoding="UTF-8"?>
<svg width="17px" height="21px" viewBox="0 0 17 21" version="1.1" xmlns="http://www.w3.org/2000/svg" xmlns:xlink="http://www.w3.org/1999/xlink">
    <title>形状</title>
    <g id="页面-1" stroke="none" stroke-width="1" fill="none" fill-rule="evenodd">
        <g id="NOMOS——夜晚备份-2" transform="translate(-52.000000, -501.000000)" fill-rule="nonzero">
            <g id="编组-4" transform="translate(0.000000, -0.052559)">
                <g id="编组-2备份-5" transform="translate(32.339746, 480.000000)">
                    <g id="rocket" transform="translate(16.000000, 20.000000)">
                        <rect id="矩形" fill="#000000" opacity="0" x="0" y="0" width="24" height="24"></rect>
                        <path d="M20.25,17.25 C20.25,14.634375 18.7171875,12.375 16.5,11.3226562 L16.5,7.43671875 C16.5,7.0828125 16.3757813,6.740625 16.1460937,6.47109375 L12.5742188,2.2359375 C12.4242188,2.0578125 12.2109375,1.96875 12,1.96875 C11.7890625,1.96875 11.5757812,2.0578125 11.4257812,2.2359375 L7.85390625,6.47109375 C7.6265625,6.740625 7.5,7.0828125 7.5,7.43671875 L7.5,11.3226562 C5.2828125,12.375 3.75,14.634375 3.75,17.25 L7.41796875,17.25 C7.3640625,17.41875 7.3359375,17.6015625 7.3359375,17.8078125 C7.3359375,18.3257812 7.5140625,18.8320312 7.8375,19.2328125 C8.10234375,19.5609375 8.4515625,19.809375 8.84765625,19.95 C9.3890625,21.215625 10.6195313,22.03125 12,22.03125 C12.6820313,22.03125 13.3429687,21.8296875 13.9078125,21.45 C14.4609375,21.0796875 14.8898437,20.5617187 15.15,19.95 C15.5460937,19.809375 15.8953125,19.5632812 16.1601562,19.2351562 C16.4835937,18.8320312 16.6617187,18.3257812 16.6617187,17.8101562 C16.6617187,17.6132812 16.6359375,17.4257812 16.5890625,17.2523437 L20.25,17.2523437 L20.25,17.25 Z M17.8664062,14.5640625 C18.0867187,14.90625 18.2648437,15.2742187 18.39375,15.65625 L16.40625,15.65625 L16.40625,13.0945312 C16.9875,13.4742188 17.4867188,13.9734375 17.8664062,14.5640625 L17.8664062,14.5640625 Z M9.09375,11.3226563 L9.09375,7.471875 L12,4.0265625 L14.90625,7.471875 L14.90625,15.65625 L9.09375,15.65625 L9.09375,11.3226563 Z M5.60625,15.65625 C5.73515625,15.2742188 5.91328125,14.90625 6.13359375,14.5640625 C6.515625,13.9734375 7.0125,13.4742188 7.59375,13.0945312 L7.59375,15.65625 L5.60625,15.65625 Z M14.7210937,18.3796875 C14.5992187,18.45 14.4585937,18.478125 14.3203125,18.459375 L13.8632812,18.403125 L13.7976562,18.8578125 C13.6710937,19.7460938 12.8976562,20.4164062 12,20.4164062 C11.1023437,20.4164062 10.3289062,19.7460938 10.2023438,18.8578125 L10.1367188,18.4007812 L9.6796875,18.459375 C9.65625,18.4617187 9.63046875,18.4640625 9.60234375,18.4640625 C9.4875,18.4640625 9.37734375,18.4335938 9.27890625,18.3773437 C9.075,18.2601562 8.9484375,18.0421875 8.9484375,17.8054687 C8.9484375,17.5570313 9.08671875,17.3507813 9.290625,17.2476562 L14.7117187,17.2476562 C14.9179687,17.353125 15.0539062,17.559375 15.0539062,17.8054687 C15.0515625,18.0445313 14.925,18.2648438 14.7210937,18.3796875 Z M10.875,9.375 C10.875,9.99632034 11.3786797,10.5 12,10.5 C12.6213203,10.5 13.125,9.99632034 13.125,9.375 C13.125,8.75367966 12.6213203,8.25 12,8.25 C11.3786797,8.25 10.875,8.75367966 10.875,9.375 L10.875,9.375 Z" id="形状" fill="#FFFFFF"></path>
                    </g>
                </g>
            </g>
        </g>
    </g>
</svg>