<?xml version="1.0" encoding="utf-8"?>
<!-- Generator: Adobe Illustrator 21.0.0, SVG Export Plug-In . SVG Version: 6.00 Build 0)  -->
<svg version="1.1" id="图层_1" xmlns="http://www.w3.org/2000/svg" xmlns:xlink="http://www.w3.org/1999/xlink" x="0px" y="0px"
	 viewBox="0 0 200 200" style="enable-background:new 0 0 200 200;" xml:space="preserve">
<path class="st0" d="M184.9,98.6l-75.5-75.4l-5.1-5.1c-2.4-2.4-6.3-2.4-8.7,0L15.1,98.6c-2.4,2.4-3.7,5.6-3.7,9
	c0.1,6.9,5.8,12.4,12.7,12.4h8.3v63.6h36.1v-14.1h-22v-63.6H27.8L100,33.7l4.5,4.5l67.7,67.7h-18.8V124h14.1v-4h8.5
	c3.3,0,6.5-1.3,8.8-3.7s3.7-5.5,3.7-8.8C188.5,104.1,187.2,101,184.9,98.6z"/>
<path class="st0" d="M166.2,136.3h-54.6c-1,0-1.7,0.7-1.7,1.6v12.5c0,0.9,0.8,1.6,1.7,1.6h54.6c1,0,1.7-0.7,1.7-1.6v-12.5
	C168,137,167.2,136.3,166.2,136.3z M166.2,168h-54.6c-1,0-1.7,0.7-1.7,1.6V182c0,0.9,0.8,1.6,1.7,1.6h54.6c1,0,1.7-0.7,1.7-1.6
	v-12.5C168,168.7,167.2,168,166.2,168L166.2,168z M101.2,136.3H83.9c-0.2,0-0.4,0.7-0.4,1.6v12.5c0,0.9,0.2,1.6,0.4,1.6h17.3
	c0.2,0,0.4-0.7,0.4-1.6v-12.5C101.7,137,101.5,136.3,101.2,136.3z M101.2,168H83.9c-0.2,0-0.4,0.7-0.4,1.6V182
	c0,0.9,0.2,1.6,0.4,1.6h17.3c0.2,0,0.4-0.7,0.4-1.6v-12.5C101.7,168.7,101.5,168,101.2,168L101.2,168z"/>
</svg>
