<?xml version="1.0" encoding="UTF-8"?>
<svg width="32px" height="35px" viewBox="0 0 32 35" version="1.1" xmlns="http://www.w3.org/2000/svg" xmlns:xlink="http://www.w3.org/1999/xlink">
    <title>形状结合</title>
    <defs>
        <linearGradient x1="117.130751%" y1="-7.86922438%" x2="-19.686226%" y2="158.960117%" id="linearGradient-1">
            <stop stop-color="#FF8600" offset="0%"></stop>
            <stop stop-color="#FFDC8C" offset="100%"></stop>
        </linearGradient>
        <radialGradient cx="27.1764988%" cy="10.4201774%" fx="27.1764988%" fy="10.4201774%" r="65.4413613%" gradientTransform="translate(0.271765,0.104202),scale(1.000000,0.914286),rotate(96.662105),scale(1.000000,1.402198),translate(-0.271765,-0.104202)" id="radialGradient-2">
            <stop stop-color="#FDF4E5" stop-opacity="0.249207428" offset="0%"></stop>
            <stop stop-color="#FFFFFF" stop-opacity="0" offset="100%"></stop>
        </radialGradient>
        <path d="M431,127 C433.209139,127 435,128.843533 435,131.117647 L435,157.882353 C435,160.156467 433.209139,162 431,162 L407,162 C404.790861,162 403,160.156467 403,157.882353 L403,131.117647 C403,128.843533 404.790861,127 407,127 L431,127 Z M431,130.088235 L407,130.088235 C406.487164,130.088235 406.064493,130.48563 406.006728,130.997596 L406,131.117647 L406,157.882353 C406,158.410272 406.38604,158.845375 406.883379,158.904839 L407,158.911765 L431,158.911765 C431.512836,158.911765 431.935507,158.51437 431.993272,158.002404 L432,157.882353 L432,131.117647 C432,130.589728 431.61396,130.154625 431.116621,130.095161 L431,130.088235 Z M413.5,146.558824 C414.328427,146.558824 415,147.230396 415,148.058824 L415,149.646824 L416.5,149.647059 C417.328427,149.647059 418,150.318632 418,151.147059 L418,151.235294 C418,152.063721 417.328427,152.735294 416.5,152.735294 L415,152.734824 L415,154.323529 C415,155.151957 414.328427,155.823529 413.5,155.823529 C412.671573,155.823529 412,155.151957 412,154.323529 L412,152.734824 L410.5,152.735294 C409.671573,152.735294 409,152.063721 409,151.235294 L409,151.147059 C409,150.318632 409.671573,149.647059 410.5,149.647059 L412,149.646824 L412,148.058824 C412,147.230396 412.671573,146.558824 413.5,146.558824 Z M427.5,149.647059 C428.328427,149.647059 429,150.318632 429,151.147059 L429,151.235294 C429,152.063721 428.328427,152.735294 427.5,152.735294 L422.5,152.735294 C421.671573,152.735294 421,152.063721 421,151.235294 L421,151.147059 C421,150.318632 421.671573,149.647059 422.5,149.647059 L427.5,149.647059 Z M428.266667,134.176471 C428.818951,134.176471 429.266667,134.637354 429.266667,135.205882 L429.266667,142.441176 C429.266667,143.009705 428.818951,143.470588 428.266667,143.470588 L409.266667,143.470588 C408.714382,143.470588 408.266667,143.009705 408.266667,142.441176 L408.266667,135.205882 C408.266667,134.637354 408.714382,134.176471 409.266667,134.176471 L428.266667,134.176471 Z M426.266,137.264706 L411.266,137.264706 L411.266,140.382353 L426.266,140.382353 L426.266,137.264706 Z" id="path-3"></path>
    </defs>
    <g id="页面-1" stroke="none" stroke-width="1" fill="none" fill-rule="evenodd">
        <g id="NOMOS——夜晚备份-2" transform="translate(-683.000000, -427.000000)">
            <g id="形状结合" transform="translate(280.000000, 300.000000)">
                <use fill="url(#linearGradient-1)" xlink:href="#path-3"></use>
                <use fill="url(#radialGradient-2)" xlink:href="#path-3"></use>
            </g>
        </g>
    </g>
</svg>