<?xml version="1.0" encoding="utf-8"?>
<!-- Generator: Adobe Illustrator 21.0.0, SVG Export Plug-In . SVG Version: 6.00 Build 0)  -->
<svg version="1.1" id="图层_1" xmlns="http://www.w3.org/2000/svg" xmlns:xlink="http://www.w3.org/1999/xlink" x="0px" y="0px"
	 viewBox="0 0 200 200" style="enable-background:new 0 0 200 200;" xml:space="preserve">
<style type="text/css">
	.st0{fill:#FFE8CD;}
	.st1{fill:#FF8C04;}
</style>
<circle class="st0" cx="100.5" cy="100" r="98"/>
<path class="st1" d="M70.8,56.8c-11.4,0-19.6,9.7-19.6,24.5c0,14.3,8.1,23.4,18.9,23.4c10.7,0,19.3-8.2,19.3-24.7
	C89.4,68,84.1,56.8,70.8,56.8z M70.3,64.3c6.3,0,8.9,6.1,8.9,16.2c0,11.3-3,16.8-8.9,16.8c-5.4,0-9.1-5.4-9.1-16.6
	C61.2,70.7,64.6,64.3,70.3,64.3z M131.3,94.6c-11.4,0-19.6,9.8-19.6,24.6c0,14.3,8.1,23.4,18.9,23.4c10.7,0,19.3-8.2,19.3-24.8
	C149.8,105.9,144.8,94.6,131.3,94.6z M130.9,102.2c6.2,0,8.9,6,8.9,16.3c0,11-3,16.6-9,16.6c-5.3,0-9-5.2-9-16
	C121.8,107.1,125.7,102.2,130.9,102.2z M78.3,143.1l51.8-86h-8.2l-51.6,86H78.3z"/>
</svg>
