<?xml version="1.0" encoding="utf-8"?>
<!-- Generator: Adobe Illustrator 21.0.0, SVG Export Plug-In . SVG Version: 6.00 Build 0)  -->
<svg version="1.1" id="图层_1" xmlns="http://www.w3.org/2000/svg" xmlns:xlink="http://www.w3.org/1999/xlink" x="0px" y="0px"
	 viewBox="0 0 200 200" style="enable-background:new 0 0 200 200;" xml:space="preserve">
<style type="text/css">
	.st0{fill:#FFE8CD;}
	.st1{fill:#FF8C04;}
</style>
<circle class="st0" cx="100.5" cy="100" r="98"/>
<g>
	<path class="st1" d="M113.3,70.6c3.6-2.4,6.3-6.2,6.9-10.5l0.2-1c0.9-6-3.3-11.4-9.4-11.9c0,0-6.4-0.6-10.2-0.6
		c-4,0-10.8,0.6-10.8,0.6c-6.1,0.5-10.3,5.8-9.4,11.8l0.2,1c0.7,4.3,3.4,8.1,7,10.5c-18.9,5.3-33.4,23-33.9,43
		c-0.2,22,17.2,39.6,39.2,39.6h15c21.9,0,39.4-17.7,39.2-39.6C146.6,93.6,132.2,76,113.3,70.6z M87.2,58.1L87.2,58.1
		c-0.2-1.4,0.2-2.3,0.7-2.9c0.4-0.5,1.2-1.2,2.7-1.3c1.8-0.2,7.1-0.6,10.2-0.6c3.4,0,9.5,0.6,9.6,0.6c1.1,0.1,2,0.6,2.7,1.3
		c0.4,0.5,0.9,1.5,0.7,2.8l-0.2,1c-0.6,4-4.7,7.5-8.8,7.5h-8.6c-4.1,0-8.2-3.5-8.8-7.5L87.2,58.1z M131.3,136.9
		c-6.1,6.3-14.4,9.7-23.3,9.7H93c-8.9,0-17.1-3.4-23.3-9.7c-6-6.2-9.3-14.4-9.2-23.1c0.6-19.8,17-36.8,36.7-38.1l0.3,0
		c0,0,2-0.2,4.1-0.2c1,0,1.5,0,1.4,0l0.7,0.1c19.7,1.3,36.1,18.4,36.7,38.2C140.6,122.6,137.3,130.8,131.3,136.9z"/>
	<path class="st1" d="M104.9,135.4v3.4H98v-3.4c-7.6,0-13.9-6.2-13.9-13.9H91c0,3.8,3.1,6.9,6.9,6.9v-13.8
		c-7.5,0-13.8-6.2-13.8-13.9S90.4,87,98,87v-3.4h6.9V87c7.6,0,13.9,6.2,13.9,13.9h-6.9c0-3.8-3.1-6.9-6.9-6.9v13.9h1.4
		c2.4,0,5.5,1.4,8,3.4c2.8,2.4,4.8,6.2,4.8,10.4C118.8,129.2,112.5,135.4,104.9,135.4z M104.9,128.5c3.8,0,6.9-3.1,6.9-6.9
		s-3.1-6.9-6.9-6.9V128.5L104.9,128.5z M98,93.9c-3.8,0-6.9,3.1-6.9,6.9c0,3.8,3.1,6.9,6.9,6.9V93.9z"/>
</g>
</svg>
