<?xml version="1.0" encoding="UTF-8"?>
<svg width="36px" height="36px" viewBox="0 0 36 36" version="1.1" xmlns="http://www.w3.org/2000/svg" xmlns:xlink="http://www.w3.org/1999/xlink">
    <title>形状</title>
    <defs>
        <linearGradient x1="130.307783%" y1="-7.80854892%" x2="-33.36487%" y2="158.845873%" id="linearGradient-1">
            <stop stop-color="#FF8600" offset="0%"></stop>
            <stop stop-color="#FFDC8C" offset="100%"></stop>
        </linearGradient>
        <radialGradient cx="27.1764988%" cy="10.4201774%" fx="27.1764988%" fy="10.4201774%" r="59.9115896%" gradientTransform="translate(0.271765,0.104202),scale(0.999476,1.000000),rotate(97.284038),scale(1.000000,1.402198),translate(-0.271765,-0.104202)" id="radialGradient-2">
            <stop stop-color="#FDF4E5" stop-opacity="0.249207428" offset="0%"></stop>
            <stop stop-color="#FFFFFF" stop-opacity="0" offset="100%"></stop>
        </radialGradient>
        <path d="M32.634,10.188 L27.954,10.188 C28.566,9.234 28.908,8.1 28.908,6.894 C28.908,5.49 28.422,4.104 27.522,3.006 C27.018,2.394 26.118,2.286 25.488,2.79 C24.876,3.294 24.768,4.194 25.272,4.824 C25.758,5.418 26.01,6.138 26.01,6.894 C26.01,8.712 24.534,10.188 22.716,10.188 L19.44,10.188 L19.44,6.876 C19.44,5.058 20.916,3.582 22.734,3.582 C23.526,3.582 24.174,2.934 24.174,2.142 C24.174,1.35 23.526,0.702 22.734,0.702 C20.826,0.702 19.134,1.566 18,2.916 C16.866,1.566 15.156,0.702 13.266,0.702 C9.864,0.702 7.092,3.474 7.092,6.876 C7.092,8.082 7.452,9.216 8.046,10.17 L3.366,10.17 C1.98,10.17 0.846,11.304 0.846,12.69 L0.846,17.496 C0.846,18.882 1.98,20.016 3.366,20.016 L4.104,20.016 C4.086,20.142 4.086,20.25 4.086,20.376 L4.086,31.77 C4.086,33.552 5.544,35.01 7.326,35.01 L28.692,35.01 C30.474,35.01 31.932,33.552 31.932,31.77 L31.932,20.376 C31.932,20.25 31.932,20.142 31.914,20.016 L32.652,20.016 C34.038,20.016 35.172,18.882 35.172,17.496 L35.172,12.708 C35.154,11.322 34.02,10.188 32.634,10.188 Z M9.954,6.876 C9.954,5.058 11.43,3.582 13.248,3.582 C15.066,3.582 16.56,5.058 16.56,6.876 L16.56,10.17 L13.266,10.17 C11.43,10.188 9.954,8.694 9.954,6.876 Z M29.034,20.376 L29.034,31.77 C29.034,31.968 28.872,32.13 28.674,32.13 L7.326,32.13 C7.128,32.13 6.966,31.968 6.966,31.77 L6.966,20.376 C6.966,20.178 7.128,20.016 7.326,20.016 L28.692,20.016 C28.872,20.016 29.034,20.178 29.034,20.376 Z M32.274,17.136 L3.726,17.136 L3.726,13.068 L32.274,13.068 L32.274,17.136 Z" id="path-3"></path>
    </defs>
    <g id="页面-1" stroke="none" stroke-width="1" fill="none" fill-rule="evenodd">
        <g id="NOMOS——夜晚备份-2" transform="translate(-861.000000, -427.000000)">
            <g id="形状" transform="translate(861.000000, 427.000000)">
                <use fill="url(#linearGradient-1)" xlink:href="#path-3"></use>
                <use fill="url(#radialGradient-2)" xlink:href="#path-3"></use>
            </g>
        </g>
    </g>
</svg>