<?xml version="1.0" encoding="utf-8"?>
<!-- Generator: Adobe Illustrator 21.0.0, SVG Export Plug-In . SVG Version: 6.00 Build 0)  -->
<svg version="1.1" id="图层_1" xmlns="http://www.w3.org/2000/svg" xmlns:xlink="http://www.w3.org/1999/xlink" x="0px" y="0px"
	 viewBox="0 0 200 200" style="enable-background:new 0 0 200 200;" xml:space="preserve">
<style type="text/css">
	.st0{fill:#FF8C04;}
</style>
<path class="st0" d="M162.2,155.5l-30.8-30.8c8.8-10.3,14.1-23.7,14.1-38.3c0-32.6-26.5-59.1-59.1-59.1S27.3,53.8,27.3,86.4
	s26.5,59.1,59.1,59.1c14.6,0,28-5.3,38.3-14.1l30.8,30.8c1.9,1.9,4.9,1.9,6.7,0C164.1,160.4,164.1,157.3,162.2,155.5z M86.4,136.4
	c-27.6,0-50-22.4-50-50c0-27.6,22.4-50,50-50c27.6,0,50,22.4,50,50C136.4,114,114,136.4,86.4,136.4z"/>
</svg>
