<?xml version="1.0" encoding="UTF-8"?>
<svg width="28px" height="28px" viewBox="0 0 28 28" version="1.1" xmlns="http://www.w3.org/2000/svg" xmlns:xlink="http://www.w3.org/1999/xlink">
    <title>形状</title>
    <g id="页面-1" stroke="none" stroke-width="1" fill="none" fill-rule="evenodd" opacity="0.449999988">
        <g id="弹窗" transform="translate(-1227.000000, -2210.000000)" fill="#FFFFFF" fill-rule="nonzero">
            <g id="编组-2备份-4" transform="translate(745.000000, 2176.000000)">
                <g id="205设置-线性" transform="translate(480.000000, 32.000000)">
                    <path d="M18.4,4 L18.775,6.6 L18.925,7.675 L19.9,8.125 C20.3,8.325 20.725,8.55 21.1,8.8 L21.975,9.375 L22.95,9 L25.5,8 L27.875,11.975 L25.775,13.575 L24.9,14.25 L25,15.35 C25.025,15.575 25.025,15.8 25.025,16 C25.025,16.2 25.025,16.425 25,16.65 L24.9,17.75 L25.775,18.425 L27.875,20.025 L25.525,24 L22.95,23 L21.975,22.625 L21.1,23.2 C20.7,23.475 20.3,23.7 19.9,23.875 L18.925,24.325 L18.775,25.375 L18.4,28 L13.6,28 L13.225,25.4 L13.075,24.325 L12.1,23.875 C11.7,23.675 11.275,23.45 10.9,23.2 L10.025,22.625 L9.05,23 L6.5,24 L4.125,20.025 L6.225,18.425 L7.1,17.75 L7,16.65 C6.975,16.425 6.975,16.2 6.975,16 C6.975,15.8 6.975,15.575 7,15.35 L7.1,14.25 L6.225,13.575 L4.125,11.975 L6.475,8 L9.05,9 L10.025,9.375 L10.9,8.8 C11.3,8.525 11.7,8.3 12.1,8.125 L13.075,7.675 L13.225,6.625 L13.6,4 L18.4,4 M18.675,2 L13.325,2 C12.475,2 11.775,2.6 11.65,3.4 L11.25,6.3 C10.75,6.525 10.275,6.8 9.775,7.125 L6.95,6.025 C6.75,5.95 6.55,5.925 6.35,5.925 C5.75,5.925 5.175,6.225 4.9,6.75 L2.225,11.25 C1.8,11.95 1.975,12.875 2.625,13.375 L5,15.175 C4.975,15.475 4.95,15.75 4.95,16 C4.95,16.25 4.95,16.525 5,16.825 L2.625,18.625 C1.975,19.125 1.8,20 2.225,20.75 L4.875,25.225 C5.175,25.75 5.75,26.075 6.35,26.075 C6.55,26.075 6.725,26.05 6.925,25.975 L9.75,24.875 C10.225,25.2 10.725,25.475 11.225,25.7 L11.65,28.575 C11.75,29.375 12.475,30 13.325,30 L18.675,30 C19.525,30 20.225,29.4 20.35,28.6 L20.775,25.7 C21.275,25.475 21.75,25.2 22.25,24.875 L25.075,25.975 C25.275,26.05 25.475,26.075 25.675,26.075 C26.275,26.075 26.85,25.775 27.125,25.25 L29.8,20.725 C30.2,20 30.025,19.125 29.375,18.625 L27,16.825 C27.025,16.575 27.05,16.3 27.05,16 C27.05,15.7 27.025,15.425 27,15.175 L29.375,13.375 C30.025,12.875 30.2,12 29.775,11.25 L27.125,6.775 C26.825,6.25 26.25,5.925 25.65,5.925 C25.45,5.925 25.275,5.95 25.075,6.025 L22.25,7.125 C21.775,6.8 21.275,6.525 20.775,6.3 L20.35,3.425 C20.225,2.6 19.525,2 18.675,2 Z M16,12 C18.2,12 20,13.8 20,16 C20,18.2 18.2,20 16,20 C13.8,20 12,18.2 12,16 C12,13.8 13.8,12 16,12 M16,10 C12.7,10 10,12.7 10,16 C10,19.3 12.7,22 16,22 C19.3,22 22,19.3 22,16 C22,12.7 19.3,10 16,10 Z" id="形状"></path>
                </g>
            </g>
        </g>
    </g>
</svg>