<?xml version="1.0" encoding="UTF-8"?>
<svg width="20px" height="20px" viewBox="0 0 20 20" version="1.1" xmlns="http://www.w3.org/2000/svg" xmlns:xlink="http://www.w3.org/1999/xlink">
    <title>形状</title>
    <g id="页面-1" stroke="none" stroke-width="1" fill="none" fill-rule="evenodd">
        <g id="NOMOS——夜晚备份-2" transform="translate(-50.000000, -430.000000)">
            <g id="编组-4" transform="translate(0.000000, -0.052559)">
                <g id="编组-2备份-4" transform="translate(32.000000, 408.052559)">
                    <g id="money-collect" transform="translate(16.000000, 20.000000)">
                        <rect id="矩形" fill="#000000" fill-rule="nonzero" opacity="0" x="0" y="0" width="24" height="24"></rect>
                        <path d="M21.3632812,16.4226562 C21.328125,16.3242188 21.2203125,16.275 21.121875,16.3101562 L19.6875,16.8328125 L19.6875,4.21875 C19.6875,3.3375 18.975,2.625 18.09375,2.625 L5.90625,2.625 C5.025,2.625 4.3125,3.3375 4.3125,4.21875 L4.3125,16.8328125 L2.87578125,16.3101562 C2.8546875,16.303125 2.83359375,16.2984375 2.8125,16.2984375 C2.709375,16.2984375 2.625,16.3828125 2.625,16.4859375 L2.625,17.8828125 C2.625,17.9601562 2.67421875,18.0304687 2.74921875,18.0585938 L11.7421875,21.3304687 C11.9085938,21.3914063 12.0890625,21.3914063 12.2554688,21.3304687 L21.2507812,18.0609375 C21.3257813,18.0328125 21.375,17.9625 21.375,17.8851563 L21.375,16.4882812 C21.375,16.4648438 21.3703125,16.44375 21.3632812,16.4226562 Z M12,19.6289062 L6,17.446875 L6,4.3125 L18,4.3125 L18,17.446875 L12,19.6289062 Z" id="形状" fill="#FFFFFF" fill-rule="nonzero"></path>
                        <path d="M12.363829,5.61274343 C12.466954,5.61274343 12.551329,5.69711843 12.551329,5.80024343 L12.551329,5.80024343 L12.551329,6.56664968 C14.1567978,6.72836843 15.3591415,7.66586843 15.5021103,9.12602468 C15.5114853,9.23618093 15.4247665,9.33227468 15.3146103,9.33227468 L15.3146103,9.33227468 L14.2622665,9.33227468 C14.1685165,9.33227468 14.088829,9.26430593 14.0771103,9.17055593 C13.9833603,8.48618093 13.432579,7.92836843 12.541954,7.80649343 L12.541954,7.80649343 L12.541954,10.9541497 L13.1372665,11.0924309 C14.6560165,11.4674309 15.6896103,12.1939934 15.691954,13.8205559 C15.691954,15.5830559 14.379454,16.5650872 12.5442978,16.7268059 L12.5442978,16.7268059 L12.5489853,17.4697747 C12.5489853,17.5752434 12.4646103,17.6596184 12.3614853,17.6596184 L12.3614853,17.6596184 L11.6958603,17.6596184 C11.5927353,17.6596184 11.5083603,17.5752434 11.5083603,17.4721184 L11.5083603,17.4721184 L11.5083603,16.7361809 C9.42242275,16.5838372 8.445079,15.3978997 8.33961025,14.1088372 C8.33023525,13.9986809 8.416954,13.9049309 8.52711025,13.9049309 L8.52711025,13.9049309 L9.60992275,13.9049309 C9.701329,13.9049309 9.7810165,13.9705559 9.795079,14.0596184 C9.91461025,14.8049309 10.4958603,15.3580559 11.5317978,15.4963372 L11.5317978,15.4963372 L11.5317978,12.1518059 L10.9528915,12.0041497 C9.72711025,11.7111809 8.55992275,10.9471184 8.55992275,9.36274343 C8.55992275,7.65180593 9.85836025,6.73539968 11.5177353,6.57368093 L11.5177353,6.57368093 L11.5177353,5.80024343 C11.5177353,5.69711843 11.6021103,5.61274343 11.7052353,5.61274343 L11.7052353,5.61274343 Z M12.541954,12.3697747 L12.541954,15.5033684 C13.5403915,15.4143059 14.229454,14.8635247 14.229454,13.9471184 C14.229454,13.2275872 13.8567978,12.7588372 12.748204,12.4213372 C12.6802353,12.4072747 12.6146103,12.3908684 12.541954,12.3697747 L12.541954,12.3697747 Z M11.529454,7.80649343 C10.6622665,7.91664968 10.0177353,8.40180593 10.0177353,9.25258718 C10.0177353,9.84789968 10.385704,10.3096184 11.1778915,10.5955559 C11.2880478,10.6400872 11.398204,10.6752434 11.529454,10.7127434 L11.529454,10.7127434 Z" id="形状结合" fill="#FFFFFF"></path>
                    </g>
                </g>
            </g>
        </g>
    </g>
</svg>