<?xml version="1.0" encoding="utf-8"?>
<!-- Generator: Adobe Illustrator 21.0.0, SVG Export Plug-In . SVG Version: 6.00 Build 0)  -->
<svg version="1.1" id="图层_1" xmlns="http://www.w3.org/2000/svg" xmlns:xlink="http://www.w3.org/1999/xlink" x="0px" y="0px"
	 viewBox="0 0 200 200" style="enable-background:new 0 0 200 200;" xml:space="preserve">
<path class="st0" d="M192.4,90.6c-3,0-5.6-2.2-6.2-5.2c-7.1-42.2-43.4-72.9-86.3-72.9c-38.6,0-71.9,24.9-83.3,60.6l9.5-4.5
	c3.1-1.5,6.8-0.1,8.3,3c1.5,3.1,0.1,6.8-3,8.3L10.2,90c-2.1,1-4.6,0.7-6.4-0.7c-1.9-1.4-2.8-3.7-2.4-6c3.9-23,15.8-44.1,33.7-59.4
	C53.2,8.5,76.2,0,100,0s46.8,8.5,64.9,23.9c17.9,15.3,29.8,36.4,33.7,59.4c0.6,3.4-1.7,6.6-5.1,7.2
	C193.1,90.6,192.8,90.6,192.4,90.6L192.4,90.6z M100,200c-23.8,0-46.8-8.5-64.9-23.9c-17.9-15.3-29.8-36.4-33.7-59.4
	c-0.6-3.4,1.7-6.6,5.1-7.2c3.4-0.6,6.6,1.7,7.2,5.1c7.1,42.2,43.4,72.9,86.3,72.9c38.4,0,71.5-24.5,83.1-59.9l-8.9,4.7
	c-3.1,1.6-6.8,0.4-8.4-2.6c-1.6-3.1-0.4-6.8,2.6-8.4l21.2-11.1c2.1-1.1,4.6-0.9,6.6,0.5c1.9,1.4,2.9,3.8,2.5,6.1
	c-3.9,23-15.8,44.1-33.7,59.4C146.8,191.5,123.8,200,100,200z"/>
<path class="st0" d="M107,151.3v7.3H92.4v-7.3C76.2,151.3,63,138.1,63,122h14.7c0,8.1,6.6,14.7,14.7,14.7v-29.3
	C76.2,107.3,63,94.1,63,78s13.2-29.3,29.3-29.3v-7.3H107v7.3c16.1,0,29.3,13.2,29.3,29.3h-14.7c0-8.1-6.6-14.7-14.7-14.7v29.3h2.9
	c5.1,0,11.7,2.9,16.9,7.3c5.9,5.1,10.3,13.2,10.3,22C136.3,138.1,123.1,151.3,107,151.3z M107,136.6c8.1,0,14.7-6.6,14.7-14.7
	s-6.6-14.7-14.7-14.7V136.6L107,136.6z M92.4,63.4c-8.1,0-14.7,6.6-14.7,14.7s6.6,14.7,14.7,14.7V63.4z"/>
</svg>
