<?xml version="1.0" encoding="UTF-8"?>
<svg width="20px" height="20px" viewBox="0 0 20 20" version="1.1" xmlns="http://www.w3.org/2000/svg" xmlns:xlink="http://www.w3.org/1999/xlink">
    <title>形状</title>
    <g id="页面-1" stroke="none" stroke-width="1" fill="none" fill-rule="evenodd">
        <g id="NOMOS——夜晚备份-2" transform="translate(-50.000000, -286.000000)" fill-rule="nonzero">
            <g id="编组-4" transform="translate(0.000000, -0.052559)">
                <g id="编组-2备份-2" transform="translate(32.000000, 264.052559)">
                    <g id="project" transform="translate(16.000000, 20.000000)">
                        <rect id="矩形" fill="#000000" opacity="0" x="0" y="0" width="24" height="24"></rect>
                        <path d="M6.5625,17.625 L8.4375,17.625 C8.540625,17.625 8.625,17.540625 8.625,17.4375 L8.625,6.5625 C8.625,6.459375 8.540625,6.375 8.4375,6.375 L6.5625,6.375 C6.459375,6.375 6.375,6.459375 6.375,6.5625 L6.375,17.4375 C6.375,17.540625 6.459375,17.625 6.5625,17.625 Z M11.0625,11.0625 L12.9375,11.0625 C13.040625,11.0625 13.125,10.978125 13.125,10.875 L13.125,6.5625 C13.125,6.459375 13.040625,6.375 12.9375,6.375 L11.0625,6.375 C10.959375,6.375 10.875,6.459375 10.875,6.5625 L10.875,10.875 C10.875,10.978125 10.959375,11.0625 11.0625,11.0625 Z M15.5625,12.75 L17.4375,12.75 C17.540625,12.75 17.625,12.665625 17.625,12.5625 L17.625,6.5625 C17.625,6.459375 17.540625,6.375 17.4375,6.375 L15.5625,6.375 C15.459375,6.375 15.375,6.459375 15.375,6.5625 L15.375,12.5625 C15.375,12.665625 15.459375,12.75 15.5625,12.75 Z M20.625,2.625 L3.375,2.625 C2.96015625,2.625 2.625,2.96015625 2.625,3.375 L2.625,20.625 C2.625,21.0398437 2.96015625,21.375 3.375,21.375 L20.625,21.375 C21.0398437,21.375 21.375,21.0398437 21.375,20.625 L21.375,3.375 C21.375,2.96015625 21.0398437,2.625 20.625,2.625 Z M19.6875,19.6875 L4.3125,19.6875 L4.3125,4.3125 L19.6875,4.3125 L19.6875,19.6875 Z" id="形状" fill="#FFFFFF"></path>
                    </g>
                </g>
            </g>
        </g>
    </g>
</svg>