<?xml version="1.0" encoding="UTF-8"?>
<svg width="24px" height="24px" viewBox="0 0 24 24" version="1.1" xmlns="http://www.w3.org/2000/svg" xmlns:xlink="http://www.w3.org/1999/xlink">
    <title>点赞</title>
    <g id="页面-1" stroke="none" stroke-width="1" fill="none" fill-rule="evenodd" opacity="0.75">
        <g id="投票治理——全部——提案详情页" transform="translate(-1282.000000, -2044.000000)" fill-rule="nonzero">
            <g id="编组-15" transform="translate(279.500000, 1595.000000)">
                <g id="编组-20" transform="translate(30.500000, 387.000000)">
                    <g id="点赞" transform="translate(972.000000, 62.000000)">
                        <rect id="矩形" fill="#000000" opacity="0" x="0" y="0" width="24" height="24"></rect>
                        <path d="M20.0925,8.08575 L13.8855,8.08575 C14.18025,7.0485 14.3295,6.12675 14.3295,5.31525 C14.3295,3.474 12.6465,1.71075 11.0355,1.94475 C9.615,2.151 8.937,3.34875 8.937,4.887 L8.937,6.27675 C8.937,8.0595 7.57275,9.57975 5.838,9.747 L3.07875,9.7425 C2.20683045,9.7425 1.5,10.4493305 1.5,11.32125 L1.5,20.4375 C1.5,21.30975 2.2065,22.01625 3.07875,22.01625 L18.3645,22.01625 C19.5212303,22.01625 20.5145094,21.1937308 20.73,20.05725 L22.458,10.941 C22.5913338,10.2365877 22.4037947,9.5093997 21.9464187,8.95732924 C21.4890428,8.40525878 20.8094202,8.08574911 20.0925,8.08575 Z M3,20.4375 L3,11.32125 C3,11.27775 3.03525,11.2425 3.07875,11.2425 L4.875,11.2425 L4.875,20.51625 L3.07875,20.51625 C3.03525758,20.51625 3,20.4809924 3,20.4375 L3,20.4375 Z M20.98425,10.662 L19.25625,19.77825 C19.1748303,20.2064987 18.8004199,20.51625 18.3645,20.51625 L6.375,20.51625 L6.375,11.1765 C8.72826735,10.7272543 10.4320566,8.6717597 10.437,6.276 L10.437,4.887 C10.437,4.0065 10.71975,3.50625 11.25075,3.42975 C11.8845,3.3375 12.8295,4.32825 12.8295,5.316 C12.8295,6.1905 12.60675,7.28475 12.153,8.5905 C12.0733712,8.81983998 12.1096768,9.07353795 12.2504319,9.2713398 C12.391187,9.46914166 12.6189794,9.58657824 12.86175,9.5865 L20.0925,9.5865 C20.362591,9.58651905 20.6186381,9.70684262 20.7910322,9.91475948 C20.9634263,10.1226763 21.0342503,10.3965775 20.98425,10.662 Z" id="形状" fill="#FFFFFF"></path>
                    </g>
                </g>
            </g>
        </g>
    </g>
</svg>