<?xml version="1.0" encoding="utf-8"?>
<!-- Generator: Adobe Illustrator 21.0.0, SVG Export Plug-In . SVG Version: 6.00 Build 0)  -->
<svg version="1.1" id="图层_1" xmlns="http://www.w3.org/2000/svg" xmlns:xlink="http://www.w3.org/1999/xlink" x="0px" y="0px"
	 viewBox="0 0 200 200" style="enable-background:new 0 0 200 200;" xml:space="preserve">
<style type="text/css">
	.st0{fill:#F14E16;}
</style>
<path class="st0" d="M94.5,83.6v43.8c0,3,2.4,5.5,5.5,5.5s5.5-2.4,5.5-5.5V83.6c0-3-2.4-5.5-5.5-5.5S94.5,80.6,94.5,83.6z"/>
<path class="st0" d="M94.5,149.2c0,3,2.4,5.5,5.5,5.5c3,0,5.5-2.4,5.5-5.5s-2.4-5.5-5.5-5.5C97,143.8,94.5,146.2,94.5,149.2z"/>
<path class="st0" d="M186.1,161.2l-76.8-133c-2.1-3.6-5.7-5.4-9.3-5.4s-7.2,1.8-9.3,5.4l-76.8,133c-4.1,7.1,1,16,9.3,16h153.6
	C185,177.2,190.2,168.3,186.1,161.2L186.1,161.2z M23.4,166.6L100,34l76.8,132.3L23.4,166.6L23.4,166.6z"/>
</svg>
