<?xml version="1.0" encoding="UTF-8"?>
<svg width="20px" height="16px" viewBox="0 0 20 16" version="1.1" xmlns="http://www.w3.org/2000/svg" xmlns:xlink="http://www.w3.org/1999/xlink">
    <title>路径</title>
    <g id="页面-1" stroke="none" stroke-width="1" fill="none" fill-rule="evenodd">
        <g id="NOMOS——昼日备份-6" transform="translate(-34.000000, -1745.000000)" fill-rule="nonzero">
            <g id="编组-4" transform="translate(0.000000, -0.052559)">
                <g id="编组-19" transform="translate(24.000000, 1635.052559)">
                    <g id="编组-23" transform="translate(0.000000, 96.947441)">
                        <g id="twitter" transform="translate(8.000000, 9.000000)">
                            <rect id="矩形" opacity="0" x="0" y="0" width="24" height="24"></rect>
                            <path d="M21.75,5.96015625 C21.0328125,6.26953125 20.2523438,6.4921875 19.4484375,6.57890625 C20.278125,6.084375 20.9085938,5.30390625 21.20625,4.37578125 C20.4398438,4.8328125 19.5726563,5.16796875 18.6703125,5.34140625 C17.9390625,4.5609375 16.9007813,4.078125 15.75,4.078125 C13.5351562,4.078125 11.7539062,5.8734375 11.7539062,8.0765625 C11.7539062,8.3859375 11.7914062,8.6953125 11.8523437,8.99296875 C8.5359375,8.81953125 5.578125,7.23515625 3.61171875,4.809375 C3.26484375,5.4046875 3.06796875,6.084375 3.06796875,6.82734375 C3.06796875,8.21484375 3.7734375,9.43828125 4.84921875,10.1578125 C4.19296875,10.1320313 3.57421875,9.946875 3.0421875,9.64921875 L3.0421875,9.6984375 C3.0421875,11.6414063 4.415625,13.2515625 6.24609375,13.621875 C5.9109375,13.7085938 5.55234375,13.7578125 5.19375,13.7578125 C4.93359375,13.7578125 4.6875,13.7320313 4.4390625,13.696875 C4.9453125,15.28125 6.41953125,16.4320313 8.175,16.4695313 C6.8015625,17.5453125 5.08125,18.178125 3.21328125,18.178125 C2.878125,18.178125 2.56875,18.1664063 2.24765625,18.1289062 C4.01953125,19.265625 6.121875,19.921875 8.3859375,19.921875 C15.7359375,19.921875 19.7578125,13.8328125 19.7578125,8.54765625 C19.7578125,8.37421875 19.7578125,8.20078125 19.7460938,8.02734375 C20.5242188,7.4578125 21.20625,6.75234375 21.75,5.96015625 Z" id="路径"></path>
                        </g>
                    </g>
                </g>
            </g>
        </g>
    </g>
</svg>