<?xml version="1.0" encoding="utf-8"?>
<!-- Generator: Adobe Illustrator 21.0.0, SVG Export Plug-In . SVG Version: 6.00 Build 0)  -->
<svg version="1.1" id="图层_1" xmlns="http://www.w3.org/2000/svg" xmlns:xlink="http://www.w3.org/1999/xlink" x="0px" y="0px"
	 viewBox="0 0 200 200" style="enable-background:new 0 0 200 200;" xml:space="preserve">
<style type="text/css">
	.st0{fill:#d3d3d3;}
	.st1{fill:#ffffff;}
</style>
<circle class="st0" cx="100.2" cy="100.6" r="98"/>
<path class="st1" d="M148.9,60.5c0,0-9.6,5.1-13.4,5.5c-8.6-13.4-41.1-7.5-35.6,18.2c-28.4,0.3-43.8-21.2-43.8-21.2
	S46.5,78.3,62.3,91c-3.1,0.3-8.9-1.7-8.9-1.7s-2.4,13.4,16.1,19.9c-1.7,2.4-9.2,0.7-9.2,0.7s2.1,11.6,18.8,14.7
	c-11.6,10.6-31.5,7.5-30.1,8.6c16.8,15.4,91.1,18.8,91.8-52.4c4.1-1.4,11-11.6,11-11.6s-10.6,3.1-11.3,2.7
	C148.6,67,148.9,60.5,148.9,60.5"/>
</svg>
