<?xml version="1.0" encoding="UTF-8"?>
<svg width="23px" height="16px" viewBox="0 0 23 16" version="1.1" xmlns="http://www.w3.org/2000/svg" xmlns:xlink="http://www.w3.org/1999/xlink">
    <title>VS</title>
    <g id="页面-1" stroke="none" stroke-width="1" fill="none" fill-rule="evenodd">
        <g id="投票治理——全部" transform="translate(-1127.000000, -237.000000)" fill="#FFFFFF" fill-rule="nonzero">
            <g id="编组-7" transform="translate(310.000000, 206.000000)">
                <g id="编组-8" transform="translate(630.000000, 30.000000)">
                    <path d="M192.619074,16.5955857 L199.414062,2.04323305 L195.820313,2.04323305 L191.449761,12.5157652 L190.703125,2.04323305 L187,2.04323305 L188.783136,16.5955857 L192.619074,16.5955857 Z M202.692861,16.84375 C203.802236,16.84375 204.757095,16.6402553 205.557438,16.2332659 C206.357781,15.8262765 207.029939,15.2290278 207.573913,14.4415199 C208.117886,13.6540119 208.471465,12.7937091 208.63465,11.8606115 C208.773531,11.0664858 208.746758,10.3484639 208.554333,9.70654565 C208.361907,9.06462741 207.968962,8.52693816 207.375496,8.09347791 C206.782031,7.66001765 205.748896,7.23152068 204.276091,6.807987 C203.680024,6.64254416 203.315439,6.46386588 203.182335,6.27195218 C203.042866,6.08665619 202.993384,5.87819821 203.033891,5.64657823 C203.089444,5.32892796 203.240772,5.05925613 203.487876,4.83756271 C203.73498,4.6158693 204.064262,4.50502259 204.47572,4.50502259 C204.97572,4.50502259 205.341607,4.65392115 205.573381,4.95171828 C205.805155,5.2495154 205.908024,5.72599079 205.881989,6.38114446 L209.261327,6.13298019 C209.379367,4.62414144 209.114743,3.52394652 208.467456,2.83239543 C207.820169,2.14084433 206.764754,1.79506879 205.301213,1.79506879 C204.108504,1.79506879 203.136429,1.98532806 202.384986,2.3658466 C201.633543,2.74636515 201.029093,3.26916454 200.571634,3.93424478 C200.114176,4.59932502 199.820057,5.30576596 199.689278,6.05356763 C199.490215,7.1918144 199.659785,8.12822091 200.197987,8.86278714 C200.730981,9.59735337 201.734748,10.1863299 203.20929,10.6297167 C204.110913,10.8944253 204.665893,11.1756781 204.874229,11.4734752 C205.082566,11.7712724 205.15375,12.1087758 205.087781,12.4859855 C205.018341,12.8830483 204.820573,13.2321327 204.494476,13.5332387 C204.16838,13.8343446 203.752727,13.9848976 203.247519,13.9848976 C202.570436,13.9848976 202.101104,13.6904094 201.839524,13.1014328 C201.679219,12.7374586 201.623369,12.2080415 201.671973,11.5131815 L198.257913,11.7811989 C198.099942,13.2503314 198.312628,14.461373 198.895971,15.4143238 C199.479315,16.3672746 200.744944,16.84375 202.692861,16.84375 Z" id="VS"></path>
                </g>
            </g>
        </g>
    </g>
</svg>