<?xml version="1.0" encoding="utf-8"?>
<!-- Generator: Adobe Illustrator 21.0.0, SVG Export Plug-In . SVG Version: 6.00 Build 0)  -->
<svg version="1.1" id="图层_1" xmlns="http://www.w3.org/2000/svg" xmlns:xlink="http://www.w3.org/1999/xlink" x="0px" y="0px"
	 viewBox="0 0 200 200" style="enable-background:new 0 0 200 200;" xml:space="preserve">
<style type="text/css">
	.st0{fill:#d3d3d3;}
	.st1{fill:#ffffff;}
</style>
<circle class="st0" cx="100.2" cy="100.6" r="98"/>
<path class="st1" d="M120.2,82.7c1.3,0,2.6,0.1,3.8,0.2c-3.5-15.9-20.7-27.8-40.3-27.8c-22,0-39.9,14.8-39.9,33.6
	c0,10.9,6,19.8,16,26.7l-4,11.9l14-6.9c5,1,9,2,14,2c1.3,0,2.5-0.1,3.7-0.2c-0.8-2.6-1.2-5.4-1.2-8.3
	C86.2,96.7,101.2,82.7,120.2,82.7z M98.7,72c3,0,5,2,5,4.9c0,3-2,4.9-5,4.9c-3,0-6-2-6-4.9C92.7,73.9,95.7,72,98.7,72z M70.8,81.8
	c-3,0-6-2-6-4.9c0-3,3-4.9,6-4.9c3,0,5,2,5,4.9C75.8,79.8,73.8,81.8,70.8,81.8z M156.7,113.5c0-15.8-16-28.7-33.9-28.7
	c-19,0-34,12.9-34,28.7c0,15.8,15,28.7,34,28.7c4,0,8-1,12-2l11,5.9l-3-9.9C150.7,130.3,156.7,122.4,156.7,113.5z M111.7,108.5
	c-2,0-4-2-4-4c0-2,2-4,4-4c3,0,5,2,5,4C116.7,106.6,114.7,108.5,111.7,108.5z M133.7,108.5c-2,0-4-2-4-4c0-2,2-4,4-4c3,0,5,2,5,4
	C138.7,106.6,136.7,108.5,133.7,108.5z"/>
</svg>
