<?xml version="1.0" encoding="UTF-8"?>
<svg width="22px" height="18px" viewBox="0 0 22 18" version="1.1" xmlns="http://www.w3.org/2000/svg" xmlns:xlink="http://www.w3.org/1999/xlink">
    <title>形状</title>
    <g id="页面-1" stroke="none" stroke-width="1" fill="none" fill-rule="evenodd">
        <g id="NOMOS——昼日备份-6" transform="translate(-129.000000, -1743.000000)" fill-rule="nonzero">
            <g id="编组-4" transform="translate(0.000000, -0.052559)">
                <g id="编组-19" transform="translate(24.000000, 1635.052559)">
                    <g id="编组-23" transform="translate(0.000000, 96.947441)">
                        <g id="编组-5备份-2" transform="translate(96.000000, 0.000000)">
                            <g id="wechat-fill" transform="translate(8.000000, 8.000000)">
                                <rect id="矩形" opacity="0" x="0" y="0" width="24" height="24"></rect>
                                <path d="M16.1742187,8.8453125 C16.3125,8.8453125 16.4507812,8.85 16.5867187,8.85703125 C16.0148437,5.840625 12.8765625,3.534375 9.0890625,3.534375 C4.8984375,3.534375 1.5,6.3609375 1.5,9.8484375 C1.5,11.7492188 2.521875,13.4625 4.12265625,14.6203125 C4.2515625,14.7117188 4.3359375,14.8617188 4.3359375,15.0328125 C4.3359375,15.0890625 4.32421875,15.140625 4.31015625,15.1945313 C4.18125,15.6703125 3.97734375,16.4320313 3.96796875,16.4671875 C3.9515625,16.528125 3.928125,16.5890625 3.928125,16.6523438 C3.928125,16.790625 4.040625,16.9054688 4.18125,16.9054688 C4.23515625,16.9054688 4.2796875,16.884375 4.3265625,16.8585938 L5.98828125,15.9 C6.1125,15.8273438 6.24609375,15.7828125 6.39140625,15.7828125 C6.46640625,15.7828125 6.54140625,15.7945313 6.6140625,15.815625 C7.38984375,16.0382813 8.2265625,16.1625 9.09140625,16.1625 C9.23203125,16.1625 9.3703125,16.1601562 9.50859375,16.153125 C9.3421875,15.6609375 9.253125,15.1429687 9.253125,14.60625 C9.253125,11.4234375 12.3515625,8.8453125 16.1742188,8.8453125 L16.1742187,8.8453125 Z M11.6203125,6.81796875 C12.178125,6.81796875 12.6328125,7.2703125 12.6328125,7.828125 C12.6328125,8.3859375 12.1804688,8.83828125 11.6203125,8.83828125 C11.0625,8.83828125 10.6078125,8.3859375 10.6078125,7.828125 C10.6078125,7.2703125 11.0625,6.81796875 11.6203125,6.81796875 Z M6.56015625,8.83828125 C6.00234375,8.83828125 5.54765625,8.3859375 5.54765625,7.828125 C5.54765625,7.2703125 6,6.81796875 6.56015625,6.81796875 C7.1203125,6.81796875 7.57265625,7.2703125 7.57265625,7.828125 C7.57265625,8.3859375 7.11796875,8.83828125 6.56015625,8.83828125 Z M20.3132813,18.5789062 C21.646875,17.6132812 22.4976563,16.1882813 22.4976563,14.6015625 C22.4976563,11.6953125 19.6664063,9.33984375 16.171875,9.33984375 C12.6796875,9.33984375 9.84609375,11.6953125 9.84609375,14.6015625 C9.84609375,17.5078125 12.6773437,19.8632812 16.171875,19.8632812 C16.89375,19.8632812 17.5921875,19.7601563 18.2367188,19.575 C18.2976563,19.55625 18.3585938,19.546875 18.421875,19.546875 C18.54375,19.546875 18.6539062,19.584375 18.7570312,19.6429688 L20.1421875,20.4398438 C20.1820313,20.4632813 20.2195312,20.4796875 20.2640625,20.4796875 C20.3203125,20.4796875 20.3742188,20.4585937 20.4140625,20.41875 C20.4539063,20.3789062 20.475,20.325 20.475,20.26875 C20.475,20.2171875 20.4539063,20.165625 20.4421875,20.1140625 C20.4351563,20.0859375 20.2640625,19.4507812 20.15625,19.0523437 C20.1445312,19.0078125 20.1351563,18.9632813 20.1351563,18.91875 C20.1375,18.7804688 20.2078125,18.65625 20.3132813,18.5789062 Z M14.0671875,13.7625 C13.6007813,13.7625 13.2234375,13.3851563 13.2234375,12.9210938 C13.2234375,12.4570313 13.6007813,12.0796875 14.0671875,12.0796875 C14.5335937,12.0796875 14.9109375,12.4570313 14.9109375,12.9210938 C14.9109375,13.3851563 14.53125,13.7625 14.0671875,13.7625 Z M18.2835937,13.7625 C17.8171875,13.7625 17.4398438,13.3851563 17.4398438,12.9210938 C17.4398438,12.4570313 17.8171875,12.0796875 18.2835937,12.0796875 C18.75,12.0796875 19.1273437,12.4570313 19.1273437,12.9210938 C19.125,13.3851563 18.7476562,13.7625 18.2835937,13.7625 Z" id="形状" ></path>
                            </g>
                        </g>
                    </g>
                </g>
            </g>
        </g>
    </g>
</svg>